<svg width="38" height="38" viewBox="0 0 38 38" fill="none" xmlns="http://www.w3.org/2000/svg">
<path d="M23.5837 19.0001C23.5837 21.5301 21.5303 23.5834 19.0003 23.5834C16.4703 23.5834 14.417 21.5301 14.417 19.0001C14.417 16.4701 16.4703 14.4167 19.0003 14.4167C21.5303 14.4167 23.5837 16.4701 23.5837 19.0001ZM37.3337 19.0001C37.3337 29.1201 29.1203 37.3334 19.0003 37.3334C8.88033 37.3334 0.666992 29.1201 0.666992 19.0001C0.666992 8.88008 8.88033 0.666748 19.0003 0.666748C29.1203 0.666748 37.3337 8.88008 37.3337 19.0001ZM33.667 19.0001H26.3337C26.3337 14.9484 23.052 11.6667 19.0003 11.6667C14.9487 11.6667 11.667 14.9484 11.667 19.0001H4.33366C4.33366 27.0851 10.9153 33.6667 19.0003 33.6667C27.0853 33.6667 33.667 27.0851 33.667 19.0001Z" fill="#CE0000"/>
</svg>
