<svg width="83" height="70" viewBox="0 0 83 70" fill="none" xmlns="http://www.w3.org/2000/svg">
<g clip-path="url(#clip0_7506_289)">
<path opacity="0.3" d="M65.8952 64.1421C52.4221 71.9526 30.5779 71.9526 17.1048 64.1421C3.63173 56.3317 3.63173 43.6684 17.1048 35.8579C30.5779 28.0474 52.4221 28.0474 65.8952 35.8579C79.3683 43.6684 79.3683 56.3317 65.8952 64.1421Z" fill="#333333"/>
<path d="M68.7236 52.4099C53.6884 61.1967 29.3116 61.1967 14.2764 52.4099C-0.758797 43.6231 -0.758797 29.3769 14.2764 20.5901C29.3116 11.8033 53.6884 11.8033 68.7236 20.5901C83.7588 29.3769 83.7588 43.6231 68.7236 52.4099Z" fill="#CE0000"/>
<path d="M70.5986 39.6819C62.5883 44.2178 52.0578 46.5 41.5 46.5C30.9423 46.5 20.4117 44.2178 12.4014 39.6819C4.38693 35.1436 0.499999 29.2677 0.499999 23.5C0.499999 17.7323 4.38693 11.8564 12.4014 7.31808C20.4117 2.78215 30.9423 0.5 41.5 0.5C52.0578 0.5 62.5883 2.78215 70.5986 7.31808C78.6131 11.8564 82.5 17.7323 82.5 23.5C82.5 29.2677 78.6131 35.1436 70.5986 39.6819Z" fill="white" stroke="#333333"/>
<g clip-path="url(#clip1_7506_289)">
<path d="M61.6704 23.4566L58.7175 25.1613L52.8117 21.7519L55.7646 20.0472L61.6704 23.4566ZM46.9058 14.933L38.0471 20.0472L32.1412 16.6377L41 11.5236L46.9058 14.933ZM49.8588 30.2755L41 35.3897L35.0942 31.9802L43.9529 26.8661L49.8588 30.2755ZM29.1883 25.1613L26.2354 26.8661L20.3296 23.4566L23.2825 21.7519L29.1883 25.1613ZM67.5763 23.4566L55.7646 16.6377L46.9058 21.7519L58.7175 28.5708L67.5763 23.4566ZM52.8117 14.933L41 8.11414L26.2354 16.6377L38.0471 23.4566L52.8117 14.933ZM55.7646 30.2755L43.9529 23.4566L29.1883 31.9802L41 38.7991L55.7646 30.2755ZM35.0942 25.1613L23.2825 18.3425L14.4237 23.4566L26.2354 30.2755L35.0942 25.1613Z" fill="#333333"/>
</g>
</g>
<defs>
<clipPath id="clip0_7506_289">
<rect width="83" height="70" fill="white"/>
</clipPath>
<clipPath id="clip1_7506_289">
<rect width="40.9159" height="40.9159" fill="white" transform="matrix(0.866044 0.499967 -0.866044 0.499967 41 3)"/>
</clipPath>
</defs>
</svg>
