<svg width="48" height="48" viewBox="0 0 48 48" fill="none" xmlns="http://www.w3.org/2000/svg">
<g id="Frame" clip-path="url(#clip0_53_272)">
<path id="Vector" d="M18 42C20.2091 42 22 40.2091 22 38C22 35.7909 20.2091 34 18 34C15.7909 34 14 35.7909 14 38C14 40.2091 15.7909 42 18 42Z" stroke="#CE0000" stroke-width="3.8" stroke-linecap="round" stroke-linejoin="round"/>
<path id="Vector_2" d="M34 42C36.2091 42 38 40.2091 38 38C38 35.7909 36.2091 34 34 34C31.7909 34 30 35.7909 30 38C30 40.2091 31.7909 42 34 42Z" stroke="#CE0000" stroke-width="3.8" stroke-linecap="round" stroke-linejoin="round"/>
<path id="Vector_3" d="M6 6H10L14 30C14.4314 31.227 15.2499 32.2805 16.332 33.0019C17.4142 33.7234 18.7015 34.0736 20 34H34C35.2985 34.0736 36.5858 33.7234 37.668 33.0019C38.7501 32.2805 39.5686 31.227 40 30L42 16H11.6" stroke="#CE0000" stroke-width="3.8" stroke-linecap="round" stroke-linejoin="round"/>
</g>
<defs>
<clipPath id="clip0_53_272">
<rect width="48" height="48" fill="white"/>
</clipPath>
</defs>
</svg>
