<svg width="44" height="44" viewBox="0 0 44 44" fill="none" xmlns="http://www.w3.org/2000/svg">
<g clip-path="url(#clip0_7368_5201)">
<path d="M21.9817 3.66669C11.8617 3.66669 3.66675 11.88 3.66675 22C3.66675 32.12 11.8617 40.3334 21.9817 40.3334C32.1201 40.3334 40.3334 32.12 40.3334 22C40.3334 11.88 32.1201 3.66669 21.9817 3.66669ZM22.0001 36.6667C13.8967 36.6667 7.33341 30.1034 7.33341 22C7.33341 13.8967 13.8967 7.33335 22.0001 7.33335C30.1034 7.33335 36.6667 13.8967 36.6667 22C36.6667 30.1034 30.1034 36.6667 22.0001 36.6667ZM22.9167 12.8334H20.1667V23.8334L29.7917 29.6084L31.1667 27.3534L22.9167 22.4584V12.8334Z" fill="white"/>
</g>
<defs>
<clipPath id="clip0_7368_5201">
<rect width="44" height="44" fill="white"/>
</clipPath>
</defs>
</svg>
