<svg width="35" height="35" viewBox="0 0 35 35" fill="none" xmlns="http://www.w3.org/2000/svg">
<rect x="0.5" y="0.5" width="34" height="34" rx="4.5" stroke="#D3D3D3"/>
<path d="M24.295 13.115C24.6844 12.7256 24.6844 12.0944 24.295 11.705C23.9056 11.3156 23.2744 11.3156 22.885 11.705L18 16.59L13.115 11.705C12.7256 11.3156 12.0944 11.3156 11.705 11.705C11.3156 12.0944 11.3156 12.7256 11.705 13.115L16.59 18L11.705 22.885C11.3156 23.2744 11.3156 23.9056 11.705 24.295C12.0944 24.6844 12.7256 24.6844 13.115 24.295L18 19.41L22.885 24.295C23.2744 24.6844 23.9056 24.6844 24.295 24.295C24.6844 23.9056 24.6844 23.2744 24.295 22.885L19.41 18L24.295 13.115Z" fill="#444444"/>
</svg>
