<svg width="121" height="37" viewBox="0 0 121 37" fill="none" xmlns="http://www.w3.org/2000/svg">
<path d="M91.691 0.539551C89.7786 0.539551 88.2286 2.08957 88.2286 4.00191C88.2286 5.91357 89.7786 7.46359 91.691 7.46359C93.6033 7.46359 95.1533 5.91357 95.1533 4.00191C95.1533 2.08957 93.6033 0.539551 91.691 0.539551ZM51.93 0.539551C50.0176 0.539551 48.4676 2.08957 48.4676 4.00191C48.4676 5.91357 50.0176 7.46359 51.93 7.46359C53.8416 7.46359 55.3916 5.91357 55.3916 4.00191C55.3916 2.08957 53.8416 0.539551 51.93 0.539551ZM80.5123 11.0524C77.4981 9.45029 73.2543 9.97552 67.5403 12.6578C67.2449 12.7964 66.9536 12.937 66.6683 13.0789V10.2094H59.753V36.1791H66.6683V20.9399C66.669 20.9392 66.6703 20.9385 66.671 20.9378C66.9144 18.1873 69.2228 16.0296 72.0369 16.0296C74.9679 16.0296 77.3501 18.3705 77.4211 21.2839L77.4245 21.2853V36.1791H84.3397V18.4306C84.3397 14.0138 82.2584 11.9805 80.5123 11.0524ZM95.25 10.2094H88.3347V36.1791H95.25V10.2094ZM55.3734 10.2094H48.4581V36.1791H55.3734V10.2094ZM32.1042 29.3916C28.7906 29.3916 26.088 26.7317 26.0143 23.4349C26.0143 23.3889 26.0177 23.3437 26.0177 23.2977C26.0177 23.245 26.0157 23.1922 26.015 23.1395C26.0988 19.8522 28.7973 17.2037 32.1042 17.2037C35.4645 17.2037 38.1981 19.9374 38.1981 23.2977C38.1981 26.658 35.4645 29.3916 32.1042 29.3916ZM32.1042 10.2892C25.0429 10.2892 19.2816 15.9458 19.1038 22.9651C19.1004 22.9644 19.0964 22.9638 19.093 22.9631C19.097 23.0314 19.097 23.0996 19.0991 23.1686C19.0984 23.2118 19.0957 23.2544 19.0957 23.2977C19.0957 23.3437 19.0984 23.3889 19.0991 23.4349C19.0254 26.7317 16.3228 29.3916 13.0085 29.3916C9.6489 29.3916 6.91525 26.658 6.91525 23.2977C6.91525 19.9374 9.6489 17.2037 13.0085 17.2037C14.5923 17.2037 16.0369 17.8115 17.1218 18.8058C17.1245 18.7991 17.1272 18.7923 17.1299 18.7855C16.3843 17.6594 15.9483 16.3101 15.9483 14.8581C15.9483 13.4169 16.3776 12.0771 17.1137 10.9564C15.8219 10.5258 14.4429 10.2892 13.0085 10.2892C5.83571 10.2892 0 16.1249 0 23.2977C0 30.4705 5.83571 36.3062 13.0085 36.3062C16.7791 36.3062 20.1786 34.6926 22.5567 32.1212C24.9348 34.6926 28.3343 36.3062 32.1042 36.3062C39.2777 36.3062 45.1134 30.4705 45.1134 23.2977C45.1134 16.1249 39.2777 10.2892 32.1042 10.2892ZM120.572 13.0059L117.953 17.9818C115.037 16.4176 112.071 15.5172 109.847 15.5172C108.067 15.5172 106.782 16.0864 106.782 17.4126C106.782 21.2515 120.82 19.3087 120.77 28.3121C120.77 33.5246 115.975 36.2731 109.946 36.2731C105.646 36.2731 101.444 35.0408 98.4291 32.7188L100.9 27.7909C103.669 29.8283 107.227 30.9653 110.143 30.9653C112.071 30.9653 113.505 30.3495 113.505 28.9752C113.505 24.8998 99.7141 27.0798 99.7141 18.1238C99.7141 12.864 104.41 10.1628 110.192 10.1628C113.85 10.1628 117.607 11.2051 120.572 13.0059Z" fill="#0071BC"/>
<path d="M17.6473 18.0274L17.1938 18.8568L16.7395 18.0274C16.1217 16.8978 15.1935 15.969 14.064 15.3512L13.2339 14.8976L14.064 14.444C15.1935 13.8262 16.1217 12.8974 16.7395 11.7678L17.1938 10.9377L17.6473 11.7678C18.2652 12.8974 19.194 13.8262 20.3235 14.444L21.153 14.8976L20.3235 15.3512C19.194 15.969 18.2652 16.8978 17.6473 18.0274Z" fill="#F9AE3B"/>
</svg>
