<svg width="34" height="34" viewBox="0 0 34 34" fill="none" xmlns="http://www.w3.org/2000/svg">
<path d="M29.8333 0.5H4.16667C2.15 0.5 0.5 2.15 0.5 4.16667V29.8333C0.5 31.85 2.15 33.5 4.16667 33.5H29.8333C31.85 33.5 33.5 31.85 33.5 29.8333V4.16667C33.5 2.15 31.85 0.5 29.8333 0.5ZM29.8333 29.8333H4.16667V4.16667H29.8333V29.8333Z" fill="#CE0000"/>
<path d="M15.6247 9.15332H6.45801V11.9033H15.6247V9.15332Z" fill="#CE0000"/>
<path d="M27.9997 23.875H18.833V26.625H27.9997V23.875Z" fill="#CE0000"/>
<path d="M27.9997 19.2917H18.833V22.0417H27.9997V19.2917Z" fill="#CE0000"/>
<path d="M9.66667 28.0001H12.4167V24.3334H16.0833V21.5834H12.4167V17.9167H9.66667V21.5834H6V24.3334H9.66667V28.0001Z" fill="#CE0000"/>
<path d="M20.832 15.075L23.417 12.49L26.002 15.075L27.9453 13.1317L25.3603 10.5283L27.9453 7.94333L26.002 6L23.417 8.585L20.832 6L18.8887 7.94333L21.4737 10.5283L18.8887 13.1317L20.832 15.075Z" fill="#CE0000"/>
</svg>
