<svg width="229" height="53" viewBox="0 0 229 53" fill="none" xmlns="http://www.w3.org/2000/svg">
<path d="M52.1523 26.0769C52.1523 20.9194 50.6229 15.8778 47.7576 11.5895C44.8923 7.30121 40.8197 3.9589 36.0548 1.98522C31.2899 0.0115453 26.0467 -0.504863 20.9884 0.50131C15.93 1.50748 11.2836 3.99104 7.6367 7.63793C3.98982 11.2848 1.50626 15.9312 0.500091 20.9896C-0.506082 26.048 0.0103196 31.2911 1.984 36.056C3.95768 40.8209 7.29999 44.8935 11.5883 47.7588C15.8765 50.6242 20.9182 52.1535 26.0757 52.1535C32.9916 52.1535 39.6243 49.4062 44.5146 44.5159C49.405 39.6256 52.1523 32.9929 52.1523 26.0769Z" fill="#FFCC00"/>
<path d="M38.6389 21.7303C38.6704 20.0178 38.3603 18.3163 37.7267 16.7251C37.0931 15.1338 36.1488 13.6848 34.9489 12.4627C33.749 11.2405 32.3175 10.2697 30.7382 9.60704C29.1589 8.94435 27.4633 8.60303 25.7506 8.60303C24.0378 8.60303 22.3423 8.94435 20.7629 9.60704C19.1836 10.2697 17.7522 11.2405 16.5523 12.4627C15.3524 13.6848 14.408 15.1338 13.7744 16.7251C13.1409 18.3163 12.8307 20.0178 12.8622 21.7303C12.8622 28.8448 9.85033 41.7224 16.9693 41.7224C48.7263 41.7224 38.6389 28.8448 38.6389 21.7303ZM22.9234 29.1751C20.2853 29.1751 18.1427 26.1763 18.1427 22.4778C18.1427 18.7793 20.2766 15.7804 22.9234 15.7804C25.5702 15.7804 27.7041 18.7793 27.7041 22.4778C27.7041 26.1763 25.5311 29.1751 22.9234 29.1751ZM34.0016 26.9586C31.9199 26.9586 30.2292 24.5857 30.2292 21.6607C30.2292 18.7358 31.9199 16.3628 34.0016 16.3628C36.0834 16.3628 37.7784 18.7314 37.7784 21.6607C37.7784 24.59 36.0661 26.9456 33.9799 26.9456L34.0016 26.9586Z" fill="#323232"/>
<path d="M71.4365 39.4459C63.1789 39.4459 61.2797 34.3609 61.1319 30.0931C60.8234 21.2444 65.5128 11.7351 76.5345 11.7351C78.3444 11.7176 80.1489 11.9368 81.902 12.387L80.9198 16.3941C79.3724 15.9085 77.7608 15.658 76.139 15.6509C68.968 15.6509 65.9952 22.3918 66.2256 29.0674C66.3777 33.37 68.5681 35.4605 72.9229 35.4605C74.6876 35.4392 76.446 35.2456 78.173 34.8825C79.0829 34.6564 79.9725 34.3555 80.8328 33.9828C81.122 35.1907 81.3225 36.4182 81.4326 37.6553C80.5774 38.0318 79.692 38.3357 78.7858 38.5636C76.3771 39.1189 73.9168 39.4204 71.4452 39.4633L71.4365 39.4459Z" fill="#323232"/>
<path d="M85.8228 44.8947C83.5845 47.1764 81.2942 48.0326 79.0124 48.0326C78.1358 48.0333 77.2616 47.9401 76.4048 47.7545L77.0046 43.8908C77.7027 44.1343 78.4382 44.2534 79.1776 44.2428C79.7826 44.2303 80.379 44.0965 80.9314 43.8494C81.4839 43.6023 81.9811 43.2469 82.3937 42.8042C83.4107 41.7525 83.9279 40.453 83.854 38.3104C83.6802 33.3254 82.3546 27.5624 80.5727 21.8386H85.4925C86.6094 25.6675 87.5569 30.6178 87.6656 34.3033C87.6759 34.7989 87.6336 35.2942 87.5395 35.7809H87.609C89.8849 31.2949 91.851 26.6584 93.4937 21.9038L98.0354 21.869C93.7588 34.2381 89.7864 40.7485 85.8228 44.8947Z" fill="#323232"/>
<path d="M102.599 39.6069C100.515 39.6239 98.4347 39.4111 96.397 38.9724L99.7826 17.1636L99.813 17.0941C99.0003 16.955 97.8703 16.8116 96.849 16.742L97.2836 13.9301C99.7614 13.643 102.257 13.5384 104.75 13.6172L103.572 21.0969C103.346 22.6745 102.877 24.326 101.86 27.3857H101.93C103.598 23.9088 105.971 21.4489 109.062 21.4489C111.73 21.4489 113.229 23.1873 113.36 26.8902C113.59 33.4919 110.274 39.6069 102.599 39.6069ZM107.44 25.3126C104.911 25.3126 102.056 31.0364 101.478 34.6567L101.273 35.8519C101.92 36.014 102.584 36.0972 103.251 36.0996C107.293 36.0996 108.988 31.3928 108.862 27.742C108.801 26.0123 108.284 25.3082 107.44 25.3082V25.3126Z" fill="#323232"/>
<path d="M118.509 32.1611C118.488 32.5479 118.436 33.1433 118.453 33.5301C118.522 35.5336 119.322 36.1377 121.739 36.1377C123.475 36.1139 125.19 35.7522 126.789 35.073L128.036 34.5644L127.336 38.3673C125.118 39.1832 122.776 39.6138 120.413 39.6407C115.989 39.6407 114.163 37.6024 114.029 33.7387C113.772 26.4329 118.027 21.4827 123.468 21.4827C127.788 21.4827 129.201 23.6253 129.275 25.7332C129.422 29.9098 125.35 31.9481 118.509 32.1611ZM123.099 24.7727C120.813 24.7727 119.448 26.8805 118.896 29.1622C122.934 29.0232 125.007 28.18 124.942 26.3155C124.907 25.342 124.22 24.7727 123.095 24.7727H123.099Z" fill="#323232"/>
<path d="M140.425 25.8721C137.33 24.716 134.527 29.9096 133.666 35.4944L133.097 39.2885H128.708C128.708 39.2885 130.594 27.7235 130.846 26.0068C130.952 25.3108 130.889 24.5995 130.662 23.933C130.435 23.2666 130.051 22.6646 129.542 22.1779L135.627 21.6563C135.313 23.5017 134.866 25.3217 134.288 27.102H134.357C136.096 23.3817 137.934 20.8132 141.224 21.5173L140.425 25.8721Z" fill="#323232"/>
<path d="M155.312 39.4891C148.076 39.4891 143.96 35.8557 143.734 29.2627C143.373 18.9798 150.488 11.5175 160.653 11.5175C163.195 11.5035 165.726 11.831 168.181 12.4911L167.029 16.6937C164.861 15.878 162.566 15.4513 160.249 15.4334C153.334 15.4334 148.319 21.0833 148.58 28.5586C148.732 32.9264 151.557 35.5341 156.133 35.5341C157.527 35.5332 158.914 35.3461 160.258 34.9778L160.532 34.9039L161.992 25.2686H166.338L164.395 37.9418C161.459 38.9575 158.375 39.4803 155.268 39.4891H155.312Z" fill="#323232"/>
<path d="M184.159 39.2893H179.77L181.508 28.3328C181.821 26.1902 181.473 25.3122 180.348 25.3122C177.996 25.3122 175.024 30.7927 174.393 34.8737L173.728 39.2893H169.339L172.781 17.1633L172.816 17.0937C172.003 16.9547 170.838 16.8112 169.852 16.7417L170.247 13.9298C172.727 13.6433 175.224 13.5387 177.718 13.6169L176.571 21.0052C176.199 23.1194 175.649 25.1984 174.928 27.2202L174.997 27.2549C176.466 24.1301 178.8 21.4268 182.134 21.4268C185.467 21.4268 186.606 23.8172 186.045 27.2245L184.159 39.2893Z" fill="#323232"/>
<path d="M193.88 39.6407C188.999 39.6407 186.987 37.3242 186.848 33.391C186.591 26.0852 191.346 21.4827 196.931 21.4827C201.92 21.4827 203.885 24.1512 204.002 27.841C204.258 35.0382 199.373 39.6407 193.88 39.6407ZM196.401 25.2985C193.132 25.2985 191.307 29.21 191.424 32.6869C191.489 34.5862 192.293 35.777 194.34 35.777C197.465 35.777 199.521 32.3001 199.386 28.3886C199.321 26.3981 198.439 25.3072 196.401 25.3072V25.2985Z" fill="#323232"/>
<path d="M227.797 25.3077H223.69L222.491 33.1785C222.178 35.2864 222.49 35.8471 223.916 35.8471C224.647 35.8486 225.377 35.7655 226.089 35.5993L225.789 39.1805C224.621 39.4665 223.424 39.6196 222.221 39.6369C218.466 39.6369 217.349 37.8463 218.01 33.6653L219.313 25.3077H216.51L217.093 21.8309H219.861L220.669 16.4591L225.202 15.5464L224.229 21.8309H228.375L227.797 25.3077Z" fill="#323232"/>
<path d="M212.788 24.7509C213.706 24.7459 214.621 24.8628 215.509 25.0986L216.052 21.7782C214.979 21.5821 213.891 21.4832 212.801 21.4827C207.816 21.4827 205.413 23.9426 205.517 27.1326C205.66 31.2397 210.141 31.7699 210.219 34.1212C210.24 34.4676 210.151 34.8117 209.966 35.1049C209.78 35.3981 209.507 35.6256 209.185 35.7553H209.15C209.01 35.8206 208.865 35.8744 208.716 35.9161C206.998 36.4314 205.148 36.2568 203.557 35.4293C202.93 36.6854 202.001 37.7665 200.854 38.5759C202.861 39.239 204.958 39.5936 207.073 39.6277C212.518 39.6711 214.939 36.5854 214.839 33.6909C214.705 29.8272 210.137 28.8102 210.059 26.6676C210.033 25.555 210.963 24.7509 212.788 24.7509Z" fill="#323232"/>
</svg>
