<svg width="20" height="34" viewBox="0 0 20 34" fill="none" xmlns="http://www.w3.org/2000/svg">
<path d="M10.6336 14.9833C6.47191 13.9017 5.13358 12.7833 5.13358 11.0417C5.13358 9.04333 6.98525 7.65 10.0836 7.65C13.3469 7.65 14.5569 9.20833 14.6669 11.5H18.7186C18.5902 8.34667 16.6652 5.45 12.8336 4.515V0.5H7.33358V4.46C3.77691 5.23 0.916914 7.54 0.916914 11.0783C0.916914 15.3133 4.41858 17.4217 9.53358 18.65C14.1169 19.75 15.0336 21.3633 15.0336 23.0683C15.0336 24.3333 14.1352 26.35 10.0836 26.35C6.30691 26.35 4.82191 24.6633 4.62025 22.5H0.586914C0.806914 26.515 3.81358 28.77 7.33358 29.5217V33.5H12.8336V29.5583C16.4086 28.88 19.2502 26.8083 19.2502 23.05C19.2502 17.8433 14.7952 16.065 10.6336 14.9833Z" fill="white"/>
</svg>
