<svg width="38" height="38" viewBox="0 0 38 38" fill="none" xmlns="http://www.w3.org/2000/svg">
<path d="M19.0003 0.666748C8.89866 0.666748 0.666992 8.89841 0.666992 19.0001C0.666992 29.1017 8.89866 37.3334 19.0003 37.3334C29.102 37.3334 37.3337 29.1017 37.3337 19.0001C37.3337 8.89841 29.102 0.666748 19.0003 0.666748ZM19.0003 33.6667C10.9153 33.6667 4.33366 27.0851 4.33366 19.0001C4.33366 10.9151 10.9153 4.33341 19.0003 4.33341C27.0853 4.33341 33.667 10.9151 33.667 19.0001C33.667 27.0851 27.0853 33.6667 19.0003 33.6667ZM23.7487 12.7484L26.3337 15.3334L19.0003 22.6667L11.667 15.3334L14.252 12.7484L17.167 15.6451V8.00008H20.8337V15.6451L23.7487 12.7484ZM28.167 28.1667H9.83366V24.5001H28.167V28.1667Z" fill="#CE0000"/>
</svg>
