<svg width="31" height="34" viewBox="0 0 31 34" fill="none" xmlns="http://www.w3.org/2000/svg">
<path d="M19.1663 4.16667V29.8333H11.833V4.16667H19.1663ZM30.1663 0.5H26.4997V4.16667H22.833V0.5H8.16634V4.16667H4.49967V0.5H0.833008V33.5H4.49967V29.8333H8.16634V33.5H22.833V29.8333H26.4997V33.5H30.1663V0.5ZM22.833 11.5V7.83333H26.4997V11.5H22.833ZM4.49967 11.5V7.83333H8.16634V11.5H4.49967ZM22.833 18.8333V15.1667H26.4997V18.8333H22.833ZM4.49967 18.8333V15.1667H8.16634V18.8333H4.49967ZM22.833 26.1667V22.5H26.4997V26.1667H22.833ZM4.49967 26.1667V22.5H8.16634V26.1667H4.49967Z" fill="#CE0000"/>
</svg>
