<svg width="83" height="70" viewBox="0 0 83 70" fill="none" xmlns="http://www.w3.org/2000/svg">
<g clip-path="url(#clip0_7506_235)">
<path opacity="0.3" d="M65.8952 64.1421C52.4221 71.9526 30.5779 71.9526 17.1048 64.1421C3.63173 56.3317 3.63173 43.6684 17.1048 35.8579C30.5779 28.0474 52.4221 28.0474 65.8952 35.8579C79.3683 43.6684 79.3683 56.3317 65.8952 64.1421Z" fill="#333333"/>
<path d="M68.7236 52.4099C53.6884 61.1967 29.3116 61.1967 14.2764 52.4099C-0.758797 43.6231 -0.758797 29.3769 14.2764 20.5901C29.3116 11.8033 53.6884 11.8033 68.7236 20.5901C83.7588 29.3769 83.7588 43.6231 68.7236 52.4099Z" fill="#CE0000"/>
<path d="M70.5986 39.6819C62.5883 44.2178 52.0578 46.5 41.5 46.5C30.9423 46.5 20.4117 44.2178 12.4014 39.6819C4.38693 35.1436 0.499999 29.2677 0.499999 23.5C0.499999 17.7323 4.38693 11.8564 12.4014 7.31808C20.4117 2.78215 30.9423 0.5 41.5 0.5C52.0578 0.5 62.5883 2.78215 70.5986 7.31808C78.6131 11.8564 82.5 17.7323 82.5 23.5C82.5 29.2677 78.6131 35.1436 70.5986 39.6819Z" fill="white" stroke="#333333"/>
<g clip-path="url(#clip1_7506_235)">
<path d="M49.1205 18.7687C54.7163 21.9991 56.5619 26.6956 54.0224 30.9745C46.6105 32.4405 38.49 31.3836 32.8795 28.1446C27.2689 24.9057 25.4381 20.2177 27.9776 15.9388C35.3895 14.4728 43.5247 15.5382 49.1205 18.7687ZM52.0734 17.0639C44.6912 12.8021 33.7949 11.8134 24.759 14.0807C20.8316 19.2971 22.5443 25.5875 29.9266 29.8493C37.3089 34.1111 48.2051 35.0999 57.2411 32.8326C61.1684 27.6162 59.4557 21.3257 52.0734 17.0639ZM44.6912 21.3257C46.7287 22.502 46.7287 24.4113 44.6912 25.5875C42.6536 26.7638 39.3464 26.7638 37.3089 25.5875C35.2713 24.4113 35.2713 22.502 37.3089 21.3257C39.3464 20.1495 42.6536 20.1495 44.6912 21.3257ZM47.6441 19.621C43.9825 17.5072 38.0176 17.5072 34.3559 19.621C30.6943 21.7349 30.6943 25.1784 34.3559 27.2923C38.0176 29.4061 43.9825 29.4061 47.6441 27.2923C51.3057 25.1784 51.3057 21.7349 47.6441 19.621Z" fill="#333333"/>
</g>
</g>
<defs>
<clipPath id="clip0_7506_235">
<rect width="83" height="70" fill="white"/>
</clipPath>
<clipPath id="clip1_7506_235">
<rect width="40.9159" height="40.9159" fill="white" transform="matrix(0.866044 0.499967 -0.866044 0.499967 41 3)"/>
</clipPath>
</defs>
</svg>
