<svg width="29" height="29" viewBox="0 0 29 29" fill="none" xmlns="http://www.w3.org/2000/svg">
  <path d="M14.244 28.4879C6.38865 28.4879 0 22.0993 0 14.244C0 6.38865 6.38865 0 14.244 0C22.0993 0 28.4879 6.38865 28.4879 14.244C28.4879 22.0993 22.0993 28.4879 14.244 28.4879Z" fill="#3C5A99"/>
  <path fill-rule="evenodd" clip-rule="evenodd" d="M12.0116 14.312V22.5692C12.0116 22.6893 12.1055 22.7832 12.2256 22.7832H15.2894C15.4094 22.7832 15.5034 22.6893 15.5034 22.5692V14.1763H17.7269C17.8365 14.1763 17.9305 14.0928 17.9409 13.978L18.1549 11.4517C18.1653 11.3265 18.0662 11.2169 17.9409 11.2169H15.5034V9.42135C15.5034 8.99857 15.8427 8.65931 16.2654 8.65931H17.9774C18.0975 8.65931 18.1914 8.56536 18.1914 8.44531V5.91908C18.1914 5.79903 18.0975 5.70508 17.9774 5.70508H15.0806C13.3843 5.70508 12.0063 7.08302 12.0063 8.77935V11.2169H10.4718C10.3518 11.2169 10.2578 11.3108 10.2578 11.4309V13.9571C10.2578 14.0771 10.3518 14.1711 10.4718 14.1711H12.0063V14.312H12.0116Z" fill="white"/>
</svg>
