<svg width="38" height="36" viewBox="0 0 38 36" fill="none" xmlns="http://www.w3.org/2000/svg">
<path d="M33.6666 8H29.67C29.8716 7.43167 30 6.80834 30 6.16667C30 3.12334 27.5433 0.666672 24.5 0.666672C22.575 0.666672 20.9066 1.65667 19.9166 3.14167L19 4.37L18.0833 3.12334C17.0933 1.65667 15.425 0.666672 13.5 0.666672C10.4566 0.666672 7.99996 3.12334 7.99996 6.16667C7.99996 6.80834 8.12829 7.43167 8.32996 8H4.33329C2.29829 8 0.684959 9.63167 0.684959 11.6667L0.666626 31.8333C0.666626 33.8683 2.29829 35.5 4.33329 35.5H33.6666C35.7016 35.5 37.3333 33.8683 37.3333 31.8333V11.6667C37.3333 9.63167 35.7016 8 33.6666 8ZM24.5 4.33334C25.5083 4.33334 26.3333 5.15834 26.3333 6.16667C26.3333 7.175 25.5083 8 24.5 8C23.4916 8 22.6666 7.175 22.6666 6.16667C22.6666 5.15834 23.4916 4.33334 24.5 4.33334ZM13.5 4.33334C14.5083 4.33334 15.3333 5.15834 15.3333 6.16667C15.3333 7.175 14.5083 8 13.5 8C12.4916 8 11.6666 7.175 11.6666 6.16667C11.6666 5.15834 12.4916 4.33334 13.5 4.33334ZM33.6666 31.8333H4.33329V28.1667H33.6666V31.8333ZM33.6666 22.6667H4.33329V11.6667H13.6466L9.83329 16.855L12.8033 19L19 10.5667L25.1966 19L28.1666 16.855L24.3533 11.6667H33.6666V22.6667Z" fill="#CE0000"/>
</svg>
