<svg width="101" height="53" viewBox="0 0 101 53" fill="none" xmlns="http://www.w3.org/2000/svg">
<g clip-path="url(#clip0_2080_4987)">
<path d="M92.275 33.0069C92.275 32.1749 92.5398 31.5069 93.0666 31.0059C93.5933 30.5049 94.3084 30.2529 95.2118 30.2529H99.5906V31.4893H95.2854C94.7145 31.4893 94.2672 31.6446 93.9435 31.9581C93.6198 32.2716 93.458 32.7022 93.458 33.2501C93.458 33.8859 93.6551 34.3869 94.0494 34.756C94.4438 35.1252 95.0323 35.3098 95.8121 35.3098H99.5906V36.5461H89.6089V35.3098H93.4874C92.6811 34.8175 92.275 34.0499 92.275 33.0099V33.0069Z" fill="#FF6B05"/>
<path d="M96.5978 21.7217V27.6692C97.2246 27.5461 97.716 27.2561 98.0721 26.8019C98.4281 26.3478 98.6076 25.7794 98.6076 25.0997C98.6076 24.1622 98.2604 23.4825 97.5659 23.0547L98.1633 22.0029C99.2374 22.7032 99.7759 23.7432 99.7759 25.1261C99.7759 26.2424 99.4257 27.1623 98.7195 27.8801C97.9985 28.5803 97.098 28.9319 96.0239 28.9319C94.9498 28.9319 94.0464 28.5862 93.3431 27.8948C92.631 27.2033 92.2749 26.3097 92.2749 25.2111C92.2749 24.171 92.6457 23.3243 93.3872 22.6709C94.1112 22.0088 94.994 21.6777 96.0386 21.6777C96.2181 21.6777 96.4035 21.6924 96.5948 21.7188L96.5978 21.7217ZM93.4461 25.214C93.4461 25.8673 93.6315 26.4123 94.0023 26.8547C94.3731 27.2942 94.8763 27.5666 95.5148 27.6721V22.9288C94.8586 23.0342 94.3495 23.2921 93.9876 23.711C93.6256 24.127 93.4461 24.628 93.4461 25.2169V25.214Z" fill="#FF6B05"/>
<path d="M99.5905 19.0229V20.2593H89.1821V19.0229H99.5905Z" fill="#FF6B05"/>
<path d="M99.5905 15.8999V17.1363H89.1821V15.8999H99.5905Z" fill="#FF6B05"/>
<path d="M93.6874 8.13628H92.4603V6.8999H99.5905V8.13628H98.3634C99.3051 8.74274 99.7759 9.63633 99.7759 10.82C99.7759 11.822 99.4139 12.6716 98.693 13.3601C97.9602 14.0603 97.0715 14.4119 96.0269 14.4119C94.9822 14.4119 94.1053 14.0633 93.3755 13.3601C92.6427 12.6599 92.2778 11.8132 92.2778 10.82C92.2778 9.63633 92.7487 8.74274 93.6903 8.13628H93.6874ZM98.5782 10.6618C98.5782 9.94396 98.3369 9.34042 97.8513 8.85994C97.3481 8.37652 96.739 8.13628 96.0269 8.13628C95.3147 8.13628 94.6997 8.37652 94.2171 8.85994C93.7227 9.34335 93.4755 9.94396 93.4755 10.6618C93.4755 11.3796 93.7227 11.9684 94.2171 12.4519C94.7026 12.9353 95.3059 13.1755 96.0269 13.1755C96.7478 13.1755 97.3481 12.9353 97.8513 12.4519C98.3369 11.9684 98.5782 11.3737 98.5782 10.6618Z" fill="#FF6B05"/>
<path d="M94.3878 3.97573C94.8439 3.97573 95.2 3.50697 95.456 2.56943C95.5325 2.21786 95.6119 1.92488 95.6914 1.6817C95.7708 1.44146 95.8944 1.17485 96.0563 0.887728C96.2181 0.600608 96.433 0.377944 96.6978 0.228524C96.9626 0.0761747 97.2775 0 97.6395 0C98.2869 0 98.8048 0.251962 99.1932 0.752957C99.5846 1.25395 99.7788 1.88972 99.7788 2.65439C99.7788 3.33704 99.6288 3.92593 99.3286 4.42106C99.0284 4.91913 98.6223 5.2707 98.1103 5.47872L97.4982 4.4152C97.8396 4.30094 98.1103 4.08999 98.3104 3.77651C98.5105 3.46302 98.6106 3.09093 98.6106 2.65439C98.6106 2.21786 98.5311 1.88679 98.3693 1.6319C98.2074 1.377 97.9661 1.24809 97.6424 1.24809C97.1569 1.24809 96.8067 1.71686 96.586 2.65439C96.5006 2.96788 96.433 3.20227 96.3859 3.3634C96.3388 3.52454 96.2535 3.74428 96.1299 4.02261C96.0063 4.30094 95.8768 4.51189 95.7385 4.65545C95.6002 4.79608 95.4148 4.92792 95.1823 5.04511C94.9498 5.1623 94.6909 5.22382 94.4054 5.22382C93.7875 5.22382 93.2784 4.98651 92.8781 4.51481C92.4779 4.0314 92.2778 3.43079 92.2778 2.71299C92.2778 2.13582 92.4073 1.62311 92.6692 1.17192C92.9311 0.72073 93.2931 0.383803 93.761 0.158209L94.3466 1.19536C93.7374 1.45025 93.4343 1.9571 93.4343 2.71592C93.4343 3.07629 93.5197 3.37512 93.6903 3.6183C93.861 3.86147 94.0935 3.98159 94.3878 3.98159V3.97573Z" fill="#FF6B05"/>
<path d="M6.50341 4.33887C4.71129 4.33887 3.18108 4.96584 1.90688 6.22273C0.635627 7.47668 0 8.99724 0 10.7815C0 12.5657 0.641513 14.1068 1.92454 15.4076C3.20756 16.7085 4.73484 17.3559 6.50341 17.3559C8.27198 17.3559 9.86105 16.7173 11.1323 15.4399C12.4036 14.1625 13.0392 12.6097 13.0392 10.7815C13.0392 8.95329 12.4124 7.42394 11.1647 6.1905C9.91402 4.95705 8.36026 4.3418 6.50341 4.3418V4.33887Z" fill="#FF6B05"/>
<path d="M94.4643 39.9858C92.6722 39.9858 91.142 40.6128 89.8678 41.8697C88.5966 43.1237 87.9609 44.6442 87.9609 46.4285C87.9609 48.2127 88.6025 49.7538 89.8855 51.0546C91.1685 52.3554 92.6958 53.0029 94.4643 53.0029C96.2329 53.0029 97.822 52.3642 99.0932 51.0868C100.364 49.8094 101 48.2567 101 46.4285C101 44.6003 100.373 43.0709 99.1256 41.8375C97.875 40.604 96.3212 39.9888 94.4643 39.9888V39.9858Z" fill="#FF6B05"/>
<path d="M11.5647 21.4634H1.47412V52.4255H11.5647V21.4634Z" fill="#1D7BBF"/>
<path d="M37.7491 24.0211C35.3655 22.4038 32.5111 21.4604 29.4389 21.4604C21.1051 21.4604 14.3486 28.3923 14.3486 36.9415C14.3486 45.4906 21.1051 52.4225 29.4389 52.4225C32.5111 52.4225 35.3655 51.4791 37.7491 49.8619V52.4225H47.8397V21.4604H37.7491V24.0211ZM31.2899 43.3343C27.7203 43.3343 24.8277 40.4719 24.8277 36.9444C24.8277 33.4169 27.7203 30.5545 31.2899 30.5545C34.8594 30.5545 37.7521 33.4169 37.7521 36.9444C37.7521 40.4719 34.8594 43.3343 31.2899 43.3343Z" fill="#1D7BBF"/>
<path d="M69.0773 21.4636C66.0345 21.4636 63.2066 22.3894 60.8347 23.9773V3.5127H50.7441V52.4256H60.8347V49.9119C63.2036 51.4998 66.0345 52.4256 69.0773 52.4256C77.4111 52.4256 84.1675 45.4937 84.1675 36.9446C84.1675 28.3955 77.4111 21.4636 69.0773 21.4636ZM67.2293 43.3345C63.9775 43.3345 61.2879 40.9584 60.8347 37.8646V36.0217C61.285 32.9278 63.9775 30.5518 67.2293 30.5518C70.7988 30.5518 73.6915 33.4142 73.6915 36.9417C73.6915 40.4691 70.7988 43.3315 67.2293 43.3315V43.3345Z" fill="#1D7BBF"/>
</g>
<defs>
<clipPath id="clip0_2080_4987">
<rect width="101" height="53" fill="white"/>
</clipPath>
</defs>
</svg>
