<svg width="29" height="29" viewBox="0 0 29 29" fill="none" xmlns="http://www.w3.org/2000/svg">
  <path d="M14.8492 28.6594C7.04611 28.6594 0.699219 22.3125 0.699219 14.5094C0.699219 6.70627 7.04611 0.359375 14.8492 0.359375C22.6524 0.359375 28.9993 6.70627 28.9993 14.5094C29.0045 22.3125 22.6524 28.6594 14.8492 28.6594ZM19.6251 8.76796C19.0457 8.76796 18.5759 9.23772 18.5759 9.81708C18.5759 10.3964 19.0457 10.8662 19.6251 10.8662C20.2044 10.8662 20.6742 10.3964 20.6742 9.81708C20.6742 9.23772 20.1992 8.76796 19.6251 8.76796ZM14.9693 10.1094C12.5422 10.1094 10.5693 12.0823 10.5693 14.5094C10.5693 16.9365 12.5422 18.9094 14.9693 18.9094C17.3964 18.9094 19.3693 16.9365 19.3693 14.5094C19.3693 12.0823 17.3911 10.1094 14.9693 10.1094ZM14.9693 17.3279C13.4139 17.3279 12.1508 16.0648 12.1508 14.5094C12.1508 12.954 13.4139 11.6909 14.9693 11.6909C16.5247 11.6909 17.7878 12.954 17.7878 14.5094C17.7878 16.0648 16.5195 17.3279 14.9693 17.3279ZM23.8424 10.8505C23.8424 7.88587 21.4414 5.48491 18.4768 5.48491H11.3939C8.42928 5.48491 6.02831 7.88587 6.02831 10.8505V17.9334C6.02831 20.898 8.42928 23.299 11.3939 23.299H18.4768C21.4414 23.299 23.8424 20.898 23.8424 17.9334V10.8505ZM22.1617 17.9334C22.1617 19.969 20.5124 21.6183 18.4768 21.6183H11.3939C9.35834 21.6183 7.70899 19.969 7.70899 17.9334V10.8505C7.70899 8.81494 9.35834 7.16558 11.3939 7.16558H18.4768C20.5124 7.16558 22.1617 8.81494 22.1617 10.8505V17.9334Z" fill="url(#paint0_linear)"/>
  <defs>
    <linearGradient id="paint0_linear" x1="3.41617" y1="24.2452" x2="38.5279" y2="-5.65201" gradientUnits="userSpaceOnUse">
      <stop offset="0.0011048" stop-color="#FBE18A"/>
      <stop offset="0.2094" stop-color="#FCBB45"/>
      <stop offset="0.3765" stop-color="#F75274"/>
      <stop offset="0.5238" stop-color="#D53692"/>
      <stop offset="0.7394" stop-color="#8F39CE"/>
      <stop offset="1" stop-color="#5B4FE9"/>
    </linearGradient>
  </defs>
</svg>
