<svg width="29" height="29" viewBox="0 0 29 29" fill="none" xmlns="http://www.w3.org/2000/svg">
  <path d="M14.3832 28.4462C6.54358 28.4462 0.160156 22.068 0.160156 14.2231C0.160156 6.38343 6.53836 0 14.3832 0C22.2229 0 28.6063 6.37821 28.6063 14.2231C28.6063 22.068 22.2229 28.4462 14.3832 28.4462Z" fill="#007AB9"/>
  <path d="M22.4184 15.3081V20.6163C22.4184 20.7468 22.314 20.8564 22.1783 20.8564H19.438C19.3075 20.8564 19.1979 20.752 19.1979 20.6163V15.6787C19.1979 14.3791 18.7334 13.4917 17.5695 13.4917C16.6822 13.4917 16.155 14.0868 15.9201 14.6661C15.8366 14.8749 15.8157 15.162 15.8157 15.4491V20.6163C15.8157 20.7468 15.7113 20.8564 15.5756 20.8564H12.8354C12.7049 20.8564 12.5953 20.752 12.5953 20.6163C12.6005 19.301 12.6266 12.9228 12.6005 11.4196C12.6005 11.2891 12.7049 11.1795 12.8354 11.1795H15.5704C15.7009 11.1795 15.8105 11.2839 15.8105 11.4196V12.5522C15.8053 12.5627 15.7948 12.5731 15.7896 12.5836H15.8105V12.5522C16.2385 11.8946 17.0005 10.9551 18.7073 10.9551C20.8316 10.9551 22.4184 12.3382 22.4184 15.3081ZM7.84556 20.8564H10.5858C10.7163 20.8564 10.8259 20.752 10.8259 20.6163V11.4196C10.8259 11.2891 10.7215 11.1795 10.5858 11.1795H7.84556C7.71508 11.1795 7.60547 11.2839 7.60547 11.4196V20.6163C7.60547 20.7468 7.71508 20.8564 7.84556 20.8564Z" fill="white"/>
  <path d="M9.12185 9.95389C10.0731 9.95389 10.8443 9.18274 10.8443 8.23146C10.8443 7.28019 10.0731 6.50903 9.12185 6.50903C8.17057 6.50903 7.39941 7.28019 7.39941 8.23146C7.39941 9.18274 8.17057 9.95389 9.12185 9.95389Z" fill="white"/>
</svg>
