<svg width="44" height="44" viewBox="0 0 44 44" fill="none" xmlns="http://www.w3.org/2000/svg">
<g clip-path="url(#clip0_7368_5192)">
<path d="M21.9999 14.6666C17.9483 14.6666 14.6666 17.9483 14.6666 22C14.6666 26.0516 17.9483 29.3333 21.9999 29.3333C26.0516 29.3333 29.3333 26.0516 29.3333 22C29.3333 17.9483 26.0516 14.6666 21.9999 14.6666ZM38.3899 20.1666C37.5466 12.5216 31.4783 6.45331 23.8333 5.60998V1.83331H20.1666V5.60998C12.5216 6.45331 6.45325 12.5216 5.60992 20.1666H1.83325V23.8333H5.60992C6.45325 31.4783 12.5216 37.5467 20.1666 38.39V42.1666H23.8333V38.39C31.4783 37.5467 37.5466 31.4783 38.3899 23.8333H42.1666V20.1666H38.3899V20.1666ZM21.9999 34.8333C14.9049 34.8333 9.16659 29.095 9.16659 22C9.16659 14.905 14.9049 9.16665 21.9999 9.16665C29.0949 9.16665 34.8333 14.905 34.8333 22C34.8333 29.095 29.0949 34.8333 21.9999 34.8333Z" fill="white"/>
</g>
<defs>
<clipPath id="clip0_7368_5192">
<rect width="44" height="44" fill="white"/>
</clipPath>
</defs>
</svg>
