<svg width="39" height="36" viewBox="0 0 39 36" fill="none" xmlns="http://www.w3.org/2000/svg">
<path fill-rule="evenodd" clip-rule="evenodd" d="M33.5489 0.607487C34.543 1.01484 35.4202 1.59272 36.1609 2.34112L36.1511 2.33164C37.6715 3.84739 38.5 5.8368 38.5 7.92095C38.5 10.0051 37.6618 11.9945 36.1511 13.5102L32.5256 17.0722C32.3209 17.2428 32.126 17.347 31.9116 17.4133C31.7362 17.4701 31.551 17.4985 31.3756 17.4985H31.2391C30.8298 17.4985 30.4107 17.3375 30.0891 17.0343C29.7675 16.7217 29.5823 16.3049 29.5823 15.8691C29.5823 15.4333 29.7675 15.007 30.0891 14.7039L33.6951 11.1419C34.582 10.2419 35.0693 9.0767 35.0693 7.84516C35.0693 6.61362 34.5723 5.44839 33.6854 4.54842C33.2663 4.12212 32.7693 3.79055 32.2137 3.56319C31.0832 3.09899 29.7967 3.09899 28.6759 3.56319C28.1204 3.80002 27.6233 4.12212 27.2042 4.54842L25.6546 6.04521C25.4889 6.20626 25.3038 6.32942 25.0893 6.41468C24.6703 6.5852 24.183 6.5852 23.7541 6.41468C23.5397 6.32942 23.3545 6.20626 23.1889 6.04521L21.688 4.55789C21.2591 4.13159 20.7718 3.80002 20.2066 3.57266C19.0858 3.10846 17.7895 3.11794 16.6687 3.57266C16.1132 3.80949 15.6162 4.14106 15.1971 4.55789C14.1347 5.62839 13.3453 7.42833 14.1445 8.83039C14.3687 9.19985 14.4271 9.65458 14.3102 10.0809C14.1835 10.5072 13.8911 10.8672 13.4915 11.0851C13.0919 11.3029 12.6241 11.3598 12.1855 11.2461C11.747 11.1324 11.3766 10.8577 11.1427 10.4788C10.7334 9.79668 10.2168 8.68829 10.4702 6.8694C10.7041 5.16419 11.4936 3.60108 12.7313 2.35059C13.472 1.61167 14.3492 1.02432 15.3433 0.61696C17.3217 -0.197752 19.6023 -0.197752 21.5808 0.61696C22.5749 1.02432 23.452 1.60219 24.1927 2.35059L24.4461 2.5969L24.6995 2.34112C25.4402 1.60219 26.3174 1.01484 27.3115 0.607487C29.2899 -0.207225 31.5705 -0.197752 33.5489 0.607487ZM17.4387 12.2121C19.4171 11.4069 21.6977 11.4069 23.6762 12.2121L23.6859 12.2216C24.68 12.629 25.5572 13.2068 26.2979 13.9552C27.8183 15.471 28.6467 17.4604 28.6467 19.5445C28.6467 21.6287 27.8085 23.6181 26.2979 25.1339L15.8111 35.4788C15.6649 35.6398 15.47 35.763 15.2556 35.8577C15.0412 35.9525 14.817 35.9998 14.5831 35.9998C14.3394 35.9998 14.1153 35.9525 13.9009 35.8672C13.6865 35.7819 13.4915 35.6588 13.3356 35.4977L2.85855 25.1433C1.33816 23.6276 0.5 21.6287 0.5 19.5445C0.5 17.4604 1.33816 15.471 2.85855 13.9552C3.59925 13.2163 4.4764 12.629 5.4705 12.2216C7.44896 11.4069 9.72954 11.4069 11.708 12.2216C12.7021 12.629 13.5792 13.2068 14.3199 13.9552L14.5733 14.2016L14.8267 13.9458C15.5674 13.2068 16.4446 12.6195 17.4387 12.2121ZM23.8126 22.8697C24.6995 21.9697 25.1868 20.8045 25.1868 19.573H25.1771C25.1771 18.3414 24.68 17.1762 23.7931 16.2762C23.3741 15.8499 22.8868 15.5184 22.3215 15.291C21.1909 14.8268 19.9045 14.8268 18.7837 15.291C18.2281 15.5278 17.7311 15.8594 17.312 16.2762L15.8014 17.7636C15.6454 17.9246 15.4505 18.0478 15.2361 18.133C14.817 18.3035 14.3297 18.3035 13.9009 18.133C13.6865 18.0478 13.5013 17.9246 13.3356 17.7636L11.8347 16.2762C11.4156 15.8499 10.9186 15.5184 10.3533 15.291C9.79776 15.0542 9.20325 14.9405 8.58925 14.9405C7.97525 14.9405 7.38073 15.0636 6.82521 15.291C6.26968 15.5278 5.77263 15.8594 5.35355 16.2762C4.45691 17.1762 3.96961 18.3414 3.96961 19.573C3.96961 20.8045 4.46666 21.9697 5.35355 22.8697L14.5831 32.0021L23.8126 22.8697Z" fill="#CE0000"/>
</svg>
