<svg width="25" height="25" viewBox="0 0 25 25" fill="none" xmlns="http://www.w3.org/2000/svg">
<path d="M4.53122 21.9561V20.6288C4.53122 20.1211 4.23098 19.7886 3.71557 19.7886C3.45786 19.7886 3.17764 19.8762 2.98498 20.1649C2.83486 19.9226 2.61969 19.7886 2.29693 19.7886C2.08176 19.7886 1.86659 19.8556 1.69645 20.0979V19.8324H1.24609V21.9561H1.69645V20.7834C1.69645 20.4071 1.88911 20.2293 2.18935 20.2293C2.48959 20.2293 2.63971 20.4278 2.63971 20.7834V21.9561H3.09007V20.7834C3.09007 20.4071 3.30524 20.2293 3.58296 20.2293C3.8832 20.2293 4.03332 20.4278 4.03332 20.7834V21.9561H4.53122ZM11.2116 19.8324H10.481V19.1906H10.0306V19.8324H9.6228V20.2525H10.0306V21.2267C10.0306 21.7138 10.2233 21.9999 10.7387 21.9999C10.9313 21.9999 11.1465 21.9329 11.2966 21.8453L11.1665 21.4458C11.0364 21.5334 10.8863 21.5566 10.7787 21.5566C10.5635 21.5566 10.4785 21.4226 10.4785 21.2035V20.2525H11.2091V19.8324H11.2116ZM15.0346 19.786C14.7769 19.786 14.6043 19.92 14.4967 20.0953V19.8298H14.0463V21.9535H14.4967V20.7577C14.4967 20.4046 14.6468 20.2035 14.927 20.2035C15.0121 20.2035 15.1197 20.2267 15.2073 20.2473L15.3374 19.804C15.2473 19.786 15.1197 19.786 15.0346 19.786ZM9.2575 20.0077C9.04233 19.853 8.74209 19.786 8.41933 19.786C7.90392 19.786 7.56115 20.0515 7.56115 20.4716C7.56115 20.8247 7.81885 21.0257 8.26921 21.0901L8.48438 21.1133C8.71957 21.1571 8.84968 21.2241 8.84968 21.335C8.84968 21.4896 8.67704 21.6004 8.3768 21.6004C8.07656 21.6004 7.83887 21.4896 7.68875 21.3788L7.47358 21.7319C7.70876 21.9097 8.03152 21.9973 8.35428 21.9973C8.95476 21.9973 9.30004 21.7087 9.30004 21.3118C9.30004 20.9355 9.01981 20.737 8.59197 20.67L8.3768 20.6468C8.18414 20.6236 8.03402 20.5798 8.03402 20.4484C8.03402 20.2937 8.18414 20.2061 8.42183 20.2061C8.67954 20.2061 8.93725 20.3169 9.06735 20.3839L9.2575 20.0077ZM21.2396 19.786C20.9819 19.786 20.8092 19.92 20.7017 20.0953V19.8298H20.2513V21.9535H20.7017V20.7577C20.7017 20.4046 20.8518 20.2035 21.132 20.2035C21.2171 20.2035 21.3247 20.2267 21.4122 20.2473L21.5423 19.8092C21.4548 19.786 21.3272 19.786 21.2396 19.786ZM15.485 20.8942C15.485 21.536 15.9153 21.9999 16.5809 21.9999C16.8811 21.9999 17.0963 21.9329 17.3114 21.7577L17.0963 21.3814C16.9236 21.5154 16.7535 21.5798 16.5583 21.5798C16.1931 21.5798 15.9353 21.3144 15.9353 20.8942C15.9353 20.4948 16.1931 20.2293 16.5583 20.2087C16.751 20.2087 16.9236 20.2757 17.0963 20.4071L17.3114 20.0308C17.0963 19.853 16.8811 19.7886 16.5809 19.7886C15.9153 19.786 15.485 20.2525 15.485 20.8942ZM19.6508 20.8942V19.8324H19.2005V20.0979C19.0503 19.8994 18.8352 19.7886 18.5549 19.7886C17.9745 19.7886 17.5241 20.2525 17.5241 20.8942C17.5241 21.536 17.9745 21.9999 18.5549 21.9999C18.8552 21.9999 19.0704 21.8891 19.2005 21.6906V21.9561H19.6508V20.8942ZM17.997 20.8942C17.997 20.518 18.2322 20.2087 18.62 20.2087C18.9853 20.2087 19.243 20.4973 19.243 20.8942C19.243 21.2705 18.9853 21.5798 18.62 21.5798C18.2347 21.5566 17.997 21.268 17.997 20.8942ZM12.6077 19.786C12.0072 19.786 11.5769 20.2293 11.5769 20.8917C11.5769 21.5566 12.0072 21.9973 12.6302 21.9973C12.9304 21.9973 13.2307 21.9097 13.4684 21.7087L13.2532 21.3762C13.0806 21.5102 12.8654 21.5979 12.6527 21.5979C12.3725 21.5979 12.0948 21.4638 12.0297 21.0901H13.5534C13.5534 21.0231 13.5534 20.9793 13.5534 20.9123C13.5735 20.2293 13.1856 19.786 12.6077 19.786ZM12.6077 20.1855C12.8879 20.1855 13.0806 20.3633 13.1231 20.6932H12.0497C12.0923 20.4071 12.2849 20.1855 12.6077 20.1855ZM23.7966 20.8942V18.9922H23.3463V20.0979C23.1962 19.8994 22.981 19.7886 22.7008 19.7886C22.1203 19.7886 21.6699 20.2525 21.6699 20.8942C21.6699 21.536 22.1203 21.9999 22.7008 21.9999C23.001 21.9999 23.2162 21.8891 23.3463 21.6906V21.9561H23.7966V20.8942ZM22.1428 20.8942C22.1428 20.518 22.378 20.2087 22.7658 20.2087C23.1311 20.2087 23.3888 20.4973 23.3888 20.8942C23.3888 21.2705 23.1311 21.5798 22.7658 21.5798C22.378 21.5566 22.1428 21.268 22.1428 20.8942ZM7.06575 20.8942V19.8324H6.61539V20.0979C6.46527 19.8994 6.2501 19.7886 5.96987 19.7886C5.38941 19.7886 4.93905 20.2525 4.93905 20.8942C4.93905 21.536 5.38941 21.9999 5.96987 21.9999C6.27011 21.9999 6.48528 21.8891 6.61539 21.6906V21.9561H7.06575V20.8942ZM5.39191 20.8942C5.39191 20.518 5.6271 20.2087 6.01491 20.2087C6.3802 20.2087 6.63791 20.4973 6.63791 20.8942C6.63791 21.2705 6.3802 21.5798 6.01491 21.5798C5.6271 21.5566 5.39191 21.268 5.39191 20.8942Z" fill="black"/>
<path d="M15.8726 3.70361H9.10718V16.2242H15.8726V3.70361Z" fill="#FF5A00"/>
<path d="M9.55765 9.96392C9.55765 7.4201 10.7186 5.16237 12.5 3.70361C11.189 2.64175 9.53513 2 7.73119 2C3.45777 2 0 5.56186 0 9.96392C0 14.366 3.45777 17.9278 7.73119 17.9278C9.53513 17.9278 11.189 17.2861 12.5 16.2242C10.7161 14.7861 9.55765 12.5077 9.55765 9.96392Z" fill="#EB001B"/>
<path d="M25 9.96392C25 14.366 21.5422 17.9278 17.2688 17.9278C15.4649 17.9278 13.811 17.2861 12.5 16.2242C14.3039 14.7629 15.4424 12.5077 15.4424 9.96392C15.4424 7.4201 14.2814 5.16237 12.5 3.70361C13.8085 2.64175 15.4624 2 17.2663 2C21.5422 2 25 5.58505 25 9.96392Z" fill="#F79E1B"/>
</svg>
