<svg width="138" height="31" viewBox="0 0 138 31" fill="none" xmlns="http://www.w3.org/2000/svg">
<path d="M2.30698 12.5759C2.10279 12.7801 1.92239 12.9846 1.75391 13.2004C1.98217 12.8648 2.2472 12.5759 2.55932 12.3236C2.47547 12.408 2.39136 12.4916 2.30698 12.5759Z" fill="#981639"/>
<path d="M38.0262 9.73391C38.8273 9.73391 39.5566 9.85849 40.2139 10.1061C40.8709 10.355 41.4361 10.6988 41.9093 11.1403C42.3817 11.5804 42.7465 12.1184 43.0028 12.7511C43.2593 13.384 43.3879 14.085 43.3879 14.8549V23.0781H39.3005V15.4797C39.3005 14.7904 39.108 14.2421 38.7236 13.8324C38.3385 13.4237 37.8177 13.2195 37.1604 13.2195C36.5029 13.2195 35.9781 13.4237 35.5853 13.8324C35.1925 14.2421 34.9965 14.7904 34.9965 15.4797V23.0781H30.9092V15.4797C30.9092 14.7904 30.7166 14.2421 30.332 13.8324C29.9469 13.4237 29.4256 13.2195 28.7688 13.2195C28.1113 13.2195 27.5865 13.4237 27.194 13.8324C26.8012 14.2421 26.6049 14.7904 26.6049 15.4797V23.0781H22.5176V9.97329H26.4605L26.5089 11.3201C26.9737 10.7755 27.5267 10.3751 28.1679 10.1177C28.8088 9.86167 29.4904 9.73391 30.2117 9.73391C31.0129 9.73391 31.7302 9.88177 32.3637 10.1777C32.9966 10.4748 33.5214 10.8964 33.9388 11.441C34.4511 10.8636 35.0606 10.4346 35.7655 10.1542C36.4711 9.87357 37.2242 9.73391 38.0262 9.73391Z" fill="#E81061"/>
<path d="M52.7195 19.8057C53.6008 19.8057 54.3096 19.505 54.8474 18.9041C55.3841 18.3031 55.6528 17.5059 55.6528 16.5116C55.6528 15.5182 55.3841 14.7199 54.8474 14.1187C54.3096 13.5177 53.6008 13.217 52.7195 13.217C51.8212 13.217 51.1041 13.5177 50.5675 14.1187C50.0303 14.7199 49.7621 15.5182 49.7621 16.5116C49.7621 17.5059 50.0303 18.3031 50.5675 18.9041C51.1041 19.505 51.8212 19.8057 52.7195 19.8057ZM52.7435 23.3162C51.6694 23.3162 50.6878 23.1517 49.7978 22.8229C48.9085 22.4944 48.1465 22.0342 47.5138 21.4401C46.8803 20.8474 46.3915 20.1345 46.0468 19.3011C45.7022 18.4674 45.5303 17.5376 45.5303 16.5116C45.5303 15.5018 45.7022 14.58 46.0468 13.7468C46.3915 12.9128 46.8803 12.1992 47.5138 11.6062C48.1465 11.0134 48.9085 10.5521 49.7978 10.2231C50.6878 9.89563 51.6694 9.73137 52.7435 9.73137C53.8013 9.73137 54.7712 9.89563 55.6528 10.2231C56.5338 10.5521 57.2877 11.0134 57.913 11.6062C58.538 12.1992 59.0231 12.9128 59.3675 13.7468C59.7121 14.58 59.8846 15.5018 59.8846 16.5116C59.8846 17.5376 59.7121 18.4674 59.3675 19.3011C59.0231 20.1345 58.538 20.8474 57.913 21.4401C57.2877 22.0342 56.5338 22.4944 55.6528 22.8229C54.7712 23.1517 53.8013 23.3162 52.7435 23.3162Z" fill="#E81061"/>
<path d="M69.2351 19.8071C70.1162 19.8071 70.8301 19.5063 71.3747 18.9054C71.9195 18.3044 72.1925 17.5141 72.1925 16.5362C72.1925 15.543 71.9195 14.7411 71.3747 14.1319C70.8301 13.5236 70.1162 13.2183 69.2351 13.2183C68.3369 13.2183 67.6153 13.5236 67.0707 14.1319C66.5261 14.7411 66.2536 15.5348 66.2536 16.513C66.2536 17.5223 66.5261 18.3243 67.0707 18.9173C67.6153 19.5101 68.3369 19.8071 69.2351 19.8071ZM70.1484 9.73271C71.0144 9.73271 71.8272 9.89697 72.5893 10.2244C73.3502 10.5535 74.0118 11.0182 74.573 11.6194C75.1335 12.2204 75.5784 12.9425 75.9075 13.7833C76.236 14.6247 76.4002 15.5592 76.4002 16.5844C76.4002 17.5953 76.236 18.5168 75.9075 19.3503C75.5784 20.184 75.1335 20.8931 74.573 21.4777C74.0118 22.0636 73.3502 22.5156 72.5893 22.8362C71.8272 23.1565 71.0144 23.3176 70.1484 23.3176C69.2669 23.3176 68.4971 23.1565 67.8404 22.8362C67.1828 22.5156 66.6298 22.0591 66.1814 21.466L66.1092 23.0769H62.166V4.32258H66.2536V11.5115C66.702 10.9502 67.2474 10.5133 67.8885 10.2011C68.5297 9.88904 69.2833 9.73271 70.1484 9.73271Z" fill="#E81061"/>
<path d="M83.8188 3.52107C83.8188 5.46543 82.2429 7.04213 80.2986 7.04213C78.3545 7.04213 76.7783 5.46543 76.7783 3.52107C76.7783 1.57671 78.3545 1.52588e-05 80.2986 1.52588e-05C82.2429 1.52588e-05 83.8188 1.57671 83.8188 3.52107ZM79.0726 10.2355H81.5248V23.075H79.0726V10.2355Z" fill="#EF276A"/>
<path d="M92.0025 9.99477C92.7717 9.99477 93.4771 10.1146 94.1182 10.3553C94.7589 10.596 95.3082 10.933 95.7656 11.3652C96.2232 11.7979 96.5755 12.3232 96.8244 12.9405C97.0709 13.5568 97.1955 14.2427 97.1955 14.9963V23.075H94.7435V15.4284C94.7435 14.4188 94.419 13.6134 93.7696 13.012C93.1205 12.4113 92.2588 12.1105 91.1849 12.1105C90.1108 12.1105 89.2495 12.4113 88.6002 13.012C87.9511 13.6134 87.6263 14.4188 87.6263 15.4284V23.075H85.1738V10.2355H87.5303L87.5782 12.1354C88.0432 11.4458 88.6483 10.9163 89.3934 10.5478C90.1388 10.1791 91.0082 9.99477 92.0025 9.99477Z" fill="#EF276A"/>
<path d="M107.512 9.99477C108.282 9.99477 108.986 10.1146 109.627 10.3553C110.268 10.596 110.818 10.933 111.276 11.3652C111.731 11.7979 112.083 12.3232 112.333 12.9405C112.581 13.5568 112.706 14.2427 112.706 14.9963V23.075H110.254V15.4284C110.254 14.4188 109.928 13.6134 109.28 13.012C108.63 12.4113 107.768 12.1105 106.695 12.1105C105.622 12.1105 104.76 12.4113 104.11 13.012C103.462 13.6134 103.135 14.4188 103.135 15.4284V23.075H100.684V10.2355H103.041L103.088 12.1354C103.553 11.4458 104.159 10.9163 104.903 10.5478C105.65 10.1791 106.519 9.99477 107.512 9.99477Z" fill="#EF276A"/>
<path d="M121.651 11.9445C120.592 11.9445 119.751 12.2931 119.127 12.9906C118.502 13.6881 118.131 14.6458 118.021 15.8634H125.33C125.218 14.6294 124.844 13.668 124.213 12.9776C123.579 12.2897 122.724 11.9445 121.651 11.9445ZM127.878 16.4881C127.878 16.6487 127.873 16.8296 127.866 17.0295C127.857 17.2298 127.845 17.4028 127.831 17.5472H118.021C118.147 18.7165 118.521 19.6463 119.139 20.3353C119.756 21.0246 120.618 21.3695 121.723 21.3695C122.492 21.3695 123.189 21.2018 123.816 20.8648C124.44 20.5279 124.969 20.0713 125.401 19.4937L127.3 20.5043C126.692 21.4012 125.911 22.095 124.957 22.5836C124.004 23.0732 122.94 23.3176 121.771 23.3176C120.824 23.3176 119.96 23.1565 119.174 22.8362C118.389 22.5156 117.72 22.067 117.166 21.4893C116.614 20.9127 116.185 20.2189 115.88 19.4103C115.576 18.6015 115.424 17.6998 115.424 16.7053C115.424 15.6957 115.572 14.781 115.868 13.964C116.163 13.1466 116.586 12.4412 117.131 11.8482C117.676 11.2555 118.333 10.7987 119.103 10.477C119.871 10.1575 120.721 9.99669 121.651 9.99669C122.581 9.99669 123.431 10.153 124.199 10.4651C124.969 10.7775 125.626 11.219 126.171 11.7882C126.715 12.3568 127.136 13.0387 127.434 13.8312C127.73 14.6247 127.878 15.511 127.878 16.4881Z" fill="#EF276A"/>
<path d="M133.095 12.16C133.576 11.4392 134.234 10.8981 135.068 10.5376C135.901 10.176 136.878 9.99611 138 9.99611L137.831 12.2563C136.373 12.2563 135.227 12.5848 134.393 13.2426C133.56 13.8999 133.142 14.7804 133.142 15.8866V23.0763H130.69V10.2368H133.048L133.095 12.16Z" fill="#EF276A"/>
<path d="M9.9712 3.33253C9.9712 3.33253 11.0231 4.83544 10.4219 6.5637C9.82096 8.29169 7.61369 9.71921 4.99776 10.6963C2.38209 11.6728 -0.623449 16.1813 0.128003 19.4122C0.128003 19.4122 1.78114 16.8576 5.61299 15.5052C9.44511 14.1525 13.734 10.5458 13.5055 6.93929C13.2772 3.33253 9.9712 3.33253 9.9712 3.33253Z" fill="#F25399"/>
<path d="M14.1713 8.16766C14.1713 8.16766 15.0735 10.1424 12.1677 12.7615C9.26184 15.3809 7.00828 15.8824 4.20297 17.6855C1.39765 19.4889 0.0106003 22.9441 0.00292969 25.149C0.00292969 25.149 3.15104 21.9427 7.65948 20.4903C12.1677 19.0382 15.9448 12.0114 14.1713 8.16766Z" fill="#EF276A"/>
<path d="M14.025 15.4826C14.025 15.4826 13.9753 17.5362 10.0681 19.9405C6.16084 22.3451 5.45858 22.1443 3.70572 23.6978C1.95286 25.2507 -0.135648 29.2063 0.00691867 30.9602C0.00691867 30.9602 3.75571 27.5037 8.96562 25.7508C14.1753 23.998 14.025 15.4826 14.025 15.4826Z" fill="#E81061"/>
</svg>
