<svg width="41" height="34" viewBox="0 0 41 34" fill="none" xmlns="http://www.w3.org/2000/svg">
<path d="M36.9997 0.5H3.99967C1.98301 0.5 0.333008 2.15 0.333008 4.16667V29.8333C0.333008 31.85 1.98301 33.5 3.99967 33.5H36.9997C39.0163 33.5 40.6663 31.85 40.6663 29.8333V4.16667C40.6663 2.15 39.0163 0.5 36.9997 0.5ZM36.9997 29.8333H3.99967V4.16667H36.9997V29.8333ZM13.1663 22.5C13.1663 19.4567 15.623 17 18.6663 17C19.308 17 19.9313 17.1283 20.4997 17.33V6H29.6663V9.66667H24.1663V22.555C24.1297 25.5617 21.6913 28 18.6663 28C15.623 28 13.1663 25.5433 13.1663 22.5Z" fill="#CE0000"/>
</svg>
