<svg width="61" height="25" viewBox="0 0 61 25" fill="none" xmlns="http://www.w3.org/2000/svg">
<path d="M22.7327 7.47681H19.3684C19.1382 7.47681 18.9424 7.65196 18.9065 7.88996L17.5458 16.9242C17.5187 17.1024 17.6506 17.2631 17.8232 17.2631H19.4294C19.6596 17.2631 19.8554 17.088 19.8913 16.8495L20.2583 14.4128C20.2937 14.1743 20.49 13.9991 20.7197 13.9991H21.7848C24.0009 13.9991 25.28 12.8761 25.614 10.6507C25.7645 9.67702 25.6204 8.91202 25.185 8.37626C24.7069 7.78796 23.8588 7.47681 22.7327 7.47681ZM23.1209 10.7764C22.9369 12.0405 22.0145 12.0405 21.1226 12.0405H20.615L20.9711 9.67959C20.9923 9.5369 21.1103 9.43181 21.2481 9.43181H21.4808C22.0883 9.43181 22.6614 9.43181 22.9576 9.79447C23.1342 10.0108 23.1883 10.3323 23.1209 10.7764Z" fill="#253B80"/>
<path d="M32.7895 10.7356H31.1784C31.0412 10.7356 30.9226 10.8407 30.9015 10.9834L30.8301 11.4552L30.7175 11.2842C30.3687 10.7541 29.5909 10.5769 28.8147 10.5769C27.0343 10.5769 25.5138 11.9889 25.2176 13.9697C25.0637 14.9578 25.2826 15.9025 25.8178 16.5614C26.3087 17.1672 27.0112 17.4197 27.847 17.4197C29.2815 17.4197 30.077 16.4538 30.077 16.4538L30.0051 16.9225C29.9781 17.1018 30.1099 17.2625 30.2816 17.2625H31.7328C31.9635 17.2625 32.1583 17.0874 32.1947 16.8489L33.0655 11.0745C33.093 10.8968 32.9617 10.7356 32.7895 10.7356ZM30.5438 14.0191C30.3884 14.983 29.6578 15.63 28.7261 15.63C28.2583 15.63 27.8844 15.4729 27.6443 15.1751C27.4062 14.8794 27.3157 14.4586 27.3915 13.9898C27.5366 13.0342 28.2794 12.366 29.1969 12.366C29.6544 12.366 30.0263 12.5252 30.2713 12.8255C30.5168 13.129 30.6142 13.5524 30.5438 14.0191Z" fill="#253B80"/>
<path d="M41.3698 10.7356H39.7508C39.5964 10.7356 39.4512 10.816 39.3637 10.9504L37.1308 14.3947L36.1843 11.0849C36.1248 10.8778 35.9423 10.7356 35.7356 10.7356H34.1447C33.9514 10.7356 33.8171 10.9334 33.8786 11.124L35.6619 16.6042L33.9853 19.0826C33.8535 19.2778 33.9863 19.5462 34.2141 19.5462H35.8311C35.9846 19.5462 36.1282 19.4679 36.2153 19.336L41.6 11.1967C41.7289 11.0019 41.5966 10.7356 41.3698 10.7356Z" fill="#253B80"/>
<path d="M46.7301 7.47681H43.3652C43.1355 7.47681 42.9397 7.65196 42.9038 7.88996L41.5431 16.9242C41.516 17.1024 41.6479 17.2631 41.8196 17.2631H43.5462C43.7066 17.2631 43.8439 17.1405 43.869 16.9736L44.2551 14.4128C44.2905 14.1743 44.4868 13.9991 44.7166 13.9991H45.7811C47.9978 13.9991 49.2763 12.8761 49.6108 10.6507C49.7619 9.67702 49.6167 8.91202 49.1814 8.37626C48.7037 7.78796 47.8561 7.47681 46.7301 7.47681ZM47.1182 10.7764C46.9347 12.0405 46.0123 12.0405 45.1199 12.0405H44.6128L44.9694 9.67959C44.9906 9.5369 45.1076 9.43181 45.2459 9.43181H45.4786C46.0856 9.43181 46.6592 9.43181 46.9554 9.79447C47.132 10.0108 47.1856 10.3323 47.1182 10.7764Z" fill="#179BD7"/>
<path d="M56.7862 10.7356H55.1761C55.0378 10.7356 54.9203 10.8407 54.8996 10.9834L54.8283 11.4552L54.7151 11.2842C54.3663 10.7541 53.5891 10.5769 52.8128 10.5769C51.0325 10.5769 49.5124 11.9889 49.2163 13.9697C49.0628 14.9578 49.2807 15.9025 49.8159 16.5614C50.3079 17.1672 51.0094 17.4197 51.8452 17.4197C53.2797 17.4197 54.0751 16.4538 54.0751 16.4538L54.0033 16.9225C53.9762 17.1018 54.1081 17.2625 54.2808 17.2625H55.7315C55.9612 17.2625 56.157 17.0874 56.1929 16.8489L57.0641 11.0745C57.0907 10.8968 56.9588 10.7356 56.7862 10.7356ZM54.5405 14.0191C54.386 14.983 53.6545 15.63 52.7228 15.63C52.2559 15.63 51.8811 15.4729 51.641 15.1751C51.4029 14.8794 51.3134 14.4586 51.3882 13.9898C51.5343 13.0342 52.2761 12.366 53.1936 12.366C53.6511 12.366 54.023 12.5252 54.268 12.8255C54.5144 13.129 54.6118 13.5524 54.5405 14.0191Z" fill="#179BD7"/>
<path d="M58.6854 7.72462L57.3046 16.9242C57.2775 17.1024 57.4093 17.2632 57.581 17.2632H58.9693C59.2 17.2632 59.3958 17.088 59.4312 16.8495L60.7929 7.8158C60.8199 7.63756 60.6881 7.47632 60.5164 7.47632H58.9619C58.8246 7.47683 58.7066 7.58192 58.6854 7.72462Z" fill="#179BD7"/>
<path d="M3.57443 19.0188L3.83171 17.3075L3.25861 17.2936H0.521973L2.4238 4.66565C2.4297 4.62753 2.44888 4.59198 2.47692 4.56674C2.50496 4.5415 2.54088 4.52759 2.57826 4.52759H7.19262C8.72451 4.52759 9.78167 4.86141 10.3336 5.52028C10.5924 5.82938 10.7572 6.15238 10.8369 6.50783C10.9205 6.8808 10.922 7.32641 10.8403 7.86989L10.8344 7.90956V8.2578L11.0932 8.41131C11.3111 8.53238 11.4843 8.67095 11.6171 8.82962C11.8385 9.09389 11.9816 9.42977 12.0421 9.82798C12.1046 10.2375 12.0839 10.7249 11.9816 11.2766C11.8635 11.9113 11.6727 12.464 11.4149 12.9163C11.1778 13.3331 10.8757 13.6787 10.5171 13.9466C10.1747 14.2011 9.7679 14.3943 9.30794 14.5179C8.86225 14.6395 8.35408 14.7008 7.79671 14.7008H7.4376C7.18081 14.7008 6.9314 14.7976 6.73561 14.9713C6.53933 15.1485 6.40946 15.3906 6.36961 15.6554L6.34255 15.8094L5.888 18.8256L5.86734 18.9364C5.86193 18.9714 5.85259 18.9889 5.83881 19.0008C5.82651 19.0116 5.8088 19.0188 5.79159 19.0188H3.57443Z" fill="#253B80"/>
<path d="M11.3381 7.94971C11.3243 8.04192 11.3085 8.13619 11.2908 8.23304C10.6823 11.5048 8.60044 12.635 5.94153 12.635H4.58772C4.26255 12.635 3.98854 12.8823 3.93787 13.2182L3.24474 17.8216L3.04845 19.1264C3.01549 19.3469 3.17783 19.5458 3.39035 19.5458H5.79148C6.07582 19.5458 6.31736 19.3294 6.36213 19.0358L6.38574 18.908L6.83783 15.9036L6.86686 15.7388C6.91113 15.4441 7.15316 15.2278 7.4375 15.2278H7.79661C10.123 15.2278 11.9441 14.2387 12.4764 11.3765C12.6988 10.1808 12.5836 9.18246 11.9953 8.48031C11.8172 8.26859 11.5963 8.09292 11.3381 7.94971Z" fill="#179BD7"/>
<path d="M10.7016 7.68381C10.6086 7.65547 10.5127 7.62971 10.4143 7.60653C10.3154 7.58387 10.2141 7.56378 10.1098 7.54626C9.7448 7.48444 9.34485 7.45508 8.91638 7.45508H5.29967C5.21063 7.45508 5.12601 7.4762 5.05025 7.51432C4.88349 7.59829 4.75952 7.76365 4.72951 7.96611L3.96013 13.0692L3.93799 13.2181C3.98866 12.8822 4.26267 12.6349 4.58784 12.6349H5.94164C8.60055 12.6349 10.6824 11.5042 11.2909 8.23296C11.3091 8.13611 11.3244 8.04184 11.3382 7.94962C11.1842 7.86411 11.0174 7.79096 10.8379 7.72862C10.7936 7.71317 10.7479 7.69823 10.7016 7.68381Z" fill="#222D65"/>
<path d="M4.72946 7.96615C4.75947 7.7637 4.88344 7.59833 5.0502 7.51488C5.12645 7.47676 5.21057 7.45564 5.29962 7.45564H8.91633C9.3448 7.45564 9.74474 7.485 10.1098 7.54682C10.2141 7.56433 10.3154 7.58442 10.4143 7.60709C10.5127 7.63027 10.6086 7.65603 10.7016 7.68436C10.7478 7.69879 10.7936 7.71373 10.8383 7.72867C11.0179 7.791 11.1846 7.86467 11.3386 7.94967C11.5196 6.74061 11.3371 5.91739 10.7129 5.17197C10.0247 4.35133 8.78252 4 7.19308 4H2.57872C2.25404 4 1.97708 4.24727 1.92691 4.58367L0.00491386 17.3414C-0.0329652 17.5938 0.152986 17.8215 0.396003 17.8215H3.2448L3.96008 13.0692L4.72946 7.96615Z" fill="#253B80"/>
</svg>
