<svg width="96" height="28" viewBox="0 0 96 28" fill="none" xmlns="http://www.w3.org/2000/svg">
<g clip-path="url(#clip0_4139_365)">
<path d="M18.0479 2.78397C16.9381 1.38985 14.9319 0.792168 12.3655 0.792168H4.91687C4.39179 0.792168 3.9456 1.21303 3.86339 1.78368L0.761958 23.4619C0.7003 23.8893 1.00063 24.2766 1.39378 24.2766H5.99223L7.14715 16.2034L7.11135 16.4562C7.19356 15.8856 7.63643 15.4647 8.16085 15.4647H10.346C14.6389 15.4647 18.0002 13.543 18.9821 7.98413C19.0112 7.81973 19.0364 7.65971 19.0583 7.50335C18.9343 7.43101 18.9343 7.43101 19.0583 7.50335C19.3507 5.44871 19.0562 4.05021 18.0479 2.78397Z" fill="#003087"/>
<path d="M65.5589 13.0346H63.084C62.8473 13.0346 62.6259 13.164 62.4933 13.3802L59.0789 18.9216L57.6323 13.5965C57.5415 13.2633 57.263 13.0346 56.9475 13.0346H54.515C54.2213 13.0346 54.0144 13.3532 54.1092 13.6594L56.8341 22.4756L54.271 26.4614C54.0701 26.7741 54.2731 27.2067 54.621 27.2067H57.0933C57.3273 27.2067 57.5468 27.0803 57.6807 26.8684L65.911 13.7763C66.1079 13.4628 65.905 13.0346 65.5589 13.0346ZM49.0131 18.3166C48.7751 19.867 47.6586 20.9082 46.2339 20.9082C45.5198 20.9082 44.9477 20.6547 44.5804 20.1754C44.2164 19.7005 44.0792 19.0231 44.1945 18.2698C44.416 16.7325 45.551 15.6584 46.9539 15.6584C47.6533 15.6584 48.2208 15.9141 48.5954 16.3978C48.9726 16.8852 49.1211 17.5662 49.0131 18.3166ZM52.4447 13.0346H49.9824C49.7715 13.0346 49.5919 13.2033 49.5587 13.4335L49.4506 14.1919L49.2789 13.9172C48.7452 13.0645 47.5565 12.7788 46.3698 12.7788C43.6495 12.7788 41.3258 15.0512 40.8736 18.2377C40.6383 19.8276 40.9724 21.3466 41.7905 22.4068C42.5417 23.3808 43.6137 23.7863 44.8913 23.7863C47.0845 23.7863 48.3004 22.2344 48.3004 22.2344L48.1903 22.9885C48.1492 23.2749 48.3501 23.5343 48.614 23.5343H50.831C51.183 23.5343 51.482 23.253 51.5371 22.8701L52.8683 13.5804C52.9094 13.294 52.7079 13.0346 52.4447 13.0346ZM37.6686 13.0997C37.3875 15.1339 35.978 15.1339 34.6142 15.1339H33.8385L34.3828 11.3359C34.4153 11.1065 34.595 10.9377 34.8058 10.9377H35.1618C36.09 10.9377 36.9665 10.9377 37.4186 11.52C37.6891 11.8686 37.7707 12.3859 37.6686 13.0997ZM37.0752 7.79217H31.9331C31.5811 7.79217 31.2821 8.07421 31.227 8.45708L29.1479 22.9886C29.1068 23.275 29.3077 23.5344 29.5709 23.5344H32.0266C32.378 23.5344 32.677 23.2524 32.732 22.8702L33.2936 18.9495C33.3479 18.5666 33.6476 18.2846 33.999 18.2846H35.6259C39.0131 18.2846 40.9682 16.4783 41.4787 12.8973C41.7088 11.3323 41.488 10.1018 40.8231 9.24035C40.0918 8.29341 38.7957 7.79217 37.0752 7.79217Z" fill="#002F86"/>
<path d="M92.0207 8.19148L89.9104 22.989C89.8693 23.2754 90.0702 23.5348 90.3334 23.5348H92.4563C92.8077 23.5348 93.1073 23.2527 93.1617 22.8699L95.2428 8.33834C95.2839 8.05192 95.083 7.79254 94.8192 7.79254H92.4444C92.2329 7.79254 92.0532 7.96132 92.0207 8.19148ZM85.687 18.3166C85.449 19.867 84.3325 20.9082 82.9077 20.9082C82.1937 20.9082 81.6216 20.6547 81.2543 20.1754C80.8896 19.7004 80.7531 19.0231 80.8684 18.2698C81.0898 16.7325 82.2249 15.6584 83.6277 15.6584C84.3272 15.6584 84.8947 15.9141 85.2693 16.3978C85.6465 16.8852 85.795 17.5662 85.687 18.3166ZM89.1186 13.0346H86.6562C86.4454 13.0346 86.2657 13.2033 86.2326 13.4335L86.1245 14.1919L85.9522 13.9172C85.4191 13.0645 84.2304 12.7788 83.0437 12.7788C80.3234 12.7788 77.9997 15.0512 77.5475 18.2376C77.3122 19.8276 77.6463 21.3466 78.4644 22.4068C79.2156 23.3808 80.2876 23.7863 81.5652 23.7863C83.7584 23.7863 84.9743 22.2344 84.9743 22.2344L84.8642 22.9884C84.8231 23.2749 85.024 23.5343 85.2878 23.5343H87.5049C87.8569 23.5343 88.1559 23.2529 88.2109 22.8701L89.5422 13.5804C89.5833 13.2939 89.3818 13.0346 89.1186 13.0346ZM74.3424 13.0997C74.0613 15.1339 72.6518 15.1339 71.288 15.1339H70.5123L71.0567 11.3359C71.0892 11.1065 71.2688 10.9377 71.4796 10.9377H71.8357C72.7638 10.9377 73.6403 10.9377 74.0925 11.52C74.3629 11.8686 74.4445 12.3859 74.3424 13.0997ZM73.749 7.79217H68.6069C68.2549 7.79217 67.9559 8.07421 67.9009 8.45708L65.8217 22.9886C65.7806 23.275 65.9822 23.5344 66.2447 23.5344H68.8834C69.1294 23.5344 69.3389 23.3371 69.3773 23.0697L69.9674 18.9495C70.0217 18.5666 70.3214 18.2846 70.6728 18.2846H72.2998C75.6869 18.2846 77.6421 16.4783 78.1526 12.8973C78.3826 11.3323 78.1618 10.1018 77.4969 9.24035C76.7656 8.29341 75.4695 7.79217 73.749 7.79217Z" fill="#009CDE"/>
<path d="M18.0479 2.78397C16.9381 1.38985 14.9319 0.792168 12.3655 0.792168H4.91687C4.39179 0.792168 3.9456 1.21303 3.86339 1.78368L0.761958 23.4619C0.7003 23.8893 1.00063 24.2766 1.39378 24.2766H5.99223L7.14715 16.2034L7.11135 16.4562C7.19356 15.8856 7.63643 15.4647 8.16085 15.4647H10.346C14.6389 15.4647 18.0002 13.543 18.9821 7.98413C19.0112 7.81973 19.0364 7.65971 19.0583 7.50335C18.9343 7.43101 18.9343 7.43101 19.0583 7.50335C19.3507 5.44871 19.0562 4.05021 18.0479 2.78397Z" fill="#003087"/>
<path d="M8.38435 7.53038C8.43341 7.18697 8.63363 6.90566 8.9028 6.76318C9.02545 6.69888 9.16203 6.66308 9.30523 6.66308H15.1448C15.8363 6.66308 16.4814 6.71277 17.0708 6.81725C17.2398 6.84718 17.4036 6.88155 17.5627 6.92101C17.7218 6.9597 17.8763 7.00357 18.0261 7.0518C18.101 7.07588 18.1746 7.10078 18.2469 7.12706C18.5366 7.23373 18.8064 7.35795 19.0544 7.50335C19.3468 5.44798 19.0523 4.05021 18.044 2.78397C16.9335 1.38985 14.928 0.792168 12.3616 0.792168H4.9123C4.38788 0.792168 3.9417 1.21303 3.85949 1.78368L0.758052 23.4611C0.696394 23.8893 0.996726 24.2758 1.38921 24.2758H5.98833L7.14324 16.2027L8.38435 7.53038Z" fill="#002F86"/>
<path d="M19.0557 7.50345C19.0331 7.66054 19.0086 7.81983 18.9794 7.98423C17.9976 13.5424 14.6362 15.4648 10.3434 15.4648H8.15755C7.63313 15.4648 7.19026 15.8857 7.10871 16.4563L5.9896 24.2759L5.67203 26.4942C5.61833 26.8683 5.88087 27.2074 6.22429 27.2074H10.1008C10.5595 27.2074 10.95 26.8391 11.0216 26.3401L11.0595 26.1223L11.7901 21.0193L11.8372 20.7373C11.9088 20.2383 12.2993 19.87 12.758 19.87H13.3382C17.0933 19.87 20.0336 18.1887 20.8928 13.3261C21.2515 11.2942 21.0659 9.59754 20.1172 8.40582C19.8294 8.04487 19.4721 7.74676 19.0557 7.50345" fill="#009CDE"/>
<path d="M18.03 7.05184C17.8802 7.00362 17.7257 6.95978 17.5666 6.92105C17.4074 6.8823 17.243 6.84798 17.0746 6.81803C16.4846 6.71281 15.8402 6.66312 15.148 6.66312H9.30912C9.16525 6.66312 9.02867 6.69896 8.90669 6.76396C8.63685 6.90644 8.43729 7.18701 8.38823 7.53116L7.14713 16.2035L7.11133 16.4563C7.19287 15.8856 7.63575 15.4648 8.16017 15.4648H10.346C14.6388 15.4648 18.0002 13.5431 18.982 7.98417C19.0112 7.81977 19.0357 7.66049 19.0583 7.50339C18.8097 7.35872 18.5405 7.23378 18.2508 7.12783C18.1785 7.10153 18.1049 7.07592 18.03 7.05184Z" fill="#012069"/>
</g>
<defs>
<clipPath id="clip0_4139_365">
<rect width="96" height="28" fill="white"/>
</clipPath>
</defs>
</svg>
