<svg width="113" height="41" viewBox="0 0 113 41" fill="none" xmlns="http://www.w3.org/2000/svg">
<path d="M43.5549 22.6888C43.5549 23.8818 43.4888 25.0086 43.5549 26.2672C43.6217 26.7967 43.3564 26.9958 42.8263 26.9291C42.6278 26.8629 42.4287 26.9291 42.2301 26.9291C40.9715 26.9291 40.441 26.3996 40.441 25.1399C40.441 23.2851 40.441 21.4292 40.441 19.5738C40.441 17.9837 39.1162 17.1222 37.5917 17.6522C36.7302 17.9837 36.3331 18.5799 36.3331 19.5076C36.3331 21.7612 36.3331 24.0136 36.3331 26.2005C36.3331 26.7305 36.2002 26.9291 35.6045 26.9291C34.8092 26.8629 33.8154 27.2605 33.3515 26.7305C32.9539 26.3334 33.2853 25.2728 33.2853 24.5442C33.2853 22.8874 33.2853 21.2311 33.2853 19.5743C33.2191 17.9175 31.7609 16.9904 30.3032 17.6528C29.4417 18.0504 29.177 18.779 29.177 19.6405C29.177 21.8273 29.177 24.0136 29.177 26.2005C29.177 26.7305 29.1108 26.9958 28.5146 26.9291C27.7192 26.8629 26.7254 27.1943 26.1954 26.7967C25.7315 26.3996 26.063 25.339 26.063 24.5437C26.063 23.0198 26.063 21.4959 26.063 20.0376C26.063 16.9231 27.1892 15.5316 30.7014 15.0683C32.0267 14.8692 33.2859 15.1345 34.4788 15.8636C34.7441 16.0622 34.8765 15.996 35.1412 15.8636C36.9304 14.803 38.7196 14.803 40.6411 15.466C42.4303 16.0622 43.2918 17.3213 43.4242 19.1767C43.5549 20.2367 43.4888 21.4964 43.5549 22.6888C43.4888 22.6888 43.4888 22.6888 43.5549 22.6888Z" fill="black"/>
<path d="M12.8745 23.2183C12.9406 22.0915 12.8077 20.7662 13.0068 19.5076C13.5369 16.8575 16.3861 14.8692 19.1035 15.333C19.3682 15.3992 19.4349 15.4659 19.4349 15.7307C19.4349 15.9298 19.4349 16.1283 19.4349 16.3269C19.4349 16.9231 19.6335 17.6522 19.3682 18.1161C19.1035 18.7785 18.3082 18.2484 17.7114 18.3814C16.4523 18.6466 15.9222 19.3752 15.9222 20.8996C15.9222 22.6221 15.8561 24.3446 15.9222 26.0675C15.989 26.7961 15.7237 26.9952 15.0607 26.929C14.3322 26.8629 13.4039 27.1943 12.9406 26.7967C12.543 26.3995 12.8745 25.4713 12.8077 24.6766C12.8745 24.2122 12.8745 23.8151 12.8745 23.2183Z" fill="black"/>
<path d="M21.0257 21.0323C21.0257 19.3093 21.0257 17.5863 21.0257 15.7971C21.0257 15.3333 21.0924 15.1342 21.6219 15.2009C21.9534 15.2671 22.2181 15.2009 22.5496 15.2009C23.4773 15.2671 24.074 15.7309 24.1402 16.7248C24.2064 19.9717 24.1402 23.1524 24.1402 26.3993C24.1402 26.7964 24.0078 26.9288 23.6764 26.8626C23.6102 26.8626 23.6102 26.8626 23.6102 26.8626C22.8149 26.8626 21.7548 27.1279 21.2248 26.7302C20.6948 26.3331 21.0924 25.2063 21.0924 24.411C21.0257 23.2853 21.0257 22.1585 21.0257 21.0323Z" fill="black"/>
<path d="M22.6138 14.2719C21.0899 14.2719 21.1561 14.2719 21.0899 12.9465C21.0232 12.085 21.2884 11.8865 22.1499 11.8865C23.6076 11.9527 24.1377 12.3503 24.27 13.5433C24.27 14.0733 24.2039 14.3386 23.6076 14.2719C23.21 14.2057 22.8785 14.2719 22.6138 14.2719Z" fill="black"/>
<path d="M101.006 4.73058C100.476 1.35132 98.0243 -0.43839 94.6445 0.0921746C93.1201 0.357457 91.7291 0.820757 90.47 1.54988C84.9701 4.53202 80.8622 8.97133 77.4157 14.1398C76.3551 15.4651 75.5603 16.9228 74.8312 18.5134C73.4397 21.0979 72.3796 23.8148 71.8496 26.7964C72.9764 24.1457 74.3017 21.5617 75.6932 19.1096C76.6209 17.7843 77.6148 16.3928 78.5425 15.068C80.5307 12.6821 82.5847 10.3628 85.1024 8.4413C87.5545 6.51975 90.0718 4.86295 93.1196 4.26674C96.7646 3.47143 99.2829 5.12823 100.012 8.77277C100.277 9.89901 100.078 11.092 100.211 12.152C100.94 9.63427 101.337 7.24888 101.006 4.73058Z" fill="url(#paint0_linear)"/>
<path d="M102.731 13.0798C102.664 13.4774 102.465 13.8084 102.399 14.1398C102.135 14.8022 101.87 15.4652 101.604 16.0614C99.8153 20.1036 97.4294 23.6814 94.5796 27.0606C93.6519 28.1212 92.6581 29.0484 91.7304 30.109C90.8684 30.8375 90.0736 31.5667 89.2121 32.2953C88.4168 32.8253 87.622 33.4226 86.8929 33.9526C85.8323 34.4821 84.7728 35.0788 83.7122 35.6089C82.5854 36.006 81.5259 36.3374 80.3324 36.4704C78.2785 36.5365 76.4893 35.9403 75.3631 34.0188C74.303 32.2291 74.3692 30.3075 74.3692 28.2531C74.1039 28.7831 73.9715 29.446 73.8392 29.9761C73.5077 31.6985 73.243 34.3497 73.773 36.536C74.6345 39.9814 78.2785 40.9758 80.9959 39.9814C82.1888 39.5843 82.6521 39.4514 83.5804 38.9209C84.9057 38.1923 85.3034 38.0599 86.231 37.397C87.2249 36.8675 88.0864 36.1378 88.8817 35.4098C89.7432 34.8797 90.3394 34.0844 91.068 33.422C91.9295 32.7586 92.5919 31.9632 93.2543 31.1023C94.3149 30.0417 95.1097 28.9155 95.9717 27.723C99.02 23.6803 101.339 19.241 102.531 14.2711C102.731 14.0075 102.797 13.5436 102.731 13.0798Z" fill="url(#paint1_linear)"/>
<path d="M69.9954 25.2718C69.9954 24.3436 69.9292 23.3503 69.8625 22.4226C69.7963 21.2296 69.4654 20.1028 68.14 19.6395C69.9292 18.6457 70.5916 17.3203 70.2596 15.3988C69.9954 13.4772 69.001 12.4167 67.08 12.1519C64.4944 11.7543 61.911 12.0195 59.3927 12.0195C58.5974 12.0195 58.0674 12.7481 58.0674 13.6758C58.0674 17.8504 58.0674 22.0917 58.0674 26.2662C58.0674 26.7295 58.1336 26.9948 58.7298 26.9281C59.326 26.8614 59.9227 26.8619 60.5851 26.9281C61.1146 26.9943 61.3137 26.7295 61.3137 26.1995C61.2475 24.6756 61.3137 23.1517 61.3137 21.694C61.3137 21.164 61.4461 21.0316 61.9761 21.0316C62.8376 21.0978 63.7653 21.0316 64.693 21.0316C66.1512 21.0316 66.6813 21.4954 66.8136 22.9531C66.8798 24.0132 66.946 25.1394 67.0789 26.1995C67.1446 26.531 67.1446 26.9281 67.6746 26.9281C68.6028 26.8619 69.5299 26.9281 70.59 26.9281C70.1934 26.3324 70.0616 25.8018 69.9954 25.2718ZM65.4232 18.2475C64.7602 18.3142 64.0973 18.2475 63.5011 18.2475C62.7725 18.1813 61.8448 18.579 61.381 18.1813C60.9177 17.7175 61.2486 16.7898 61.2486 16.0607C61.2486 14.4038 61.2486 14.4038 62.8387 14.4038C63.634 14.4038 64.495 14.3377 65.2914 14.4038C66.4838 14.4706 67.1462 15.133 67.2124 16.1936C67.2118 17.4527 66.6823 18.1151 65.4232 18.2475Z" fill="#E79C00"/>
<path d="M6.71303 11.6884C5.12241 11.7551 3.53232 11.6884 1.87606 11.6884C0.683095 11.6884 0.0863463 12.2184 0.0863463 13.4775C0.0863463 15.5982 0.0863463 17.6521 0.0863463 19.7727C0.0863463 21.2972 0.0863463 22.8872 0.0863463 24.4117C0.0863463 25.207 -0.178397 26.267 0.219257 26.6647C0.749284 27.1947 1.80988 26.7309 2.67137 26.8633C3.13521 26.9294 3.26758 26.7971 3.26758 26.2676C3.2014 24.9422 3.26758 23.4845 3.2014 22.1587C3.2014 21.6292 3.39995 21.4301 3.92998 21.4301C4.99003 21.4968 5.9839 21.4301 7.04449 21.4301C9.82754 21.3639 11.3514 20.1047 11.6167 17.3879C12.0144 14.2723 10.7552 11.6884 6.71303 11.6884ZM8.36983 17.6521C8.10454 18.3807 7.50834 18.7121 6.77921 18.7121C5.71916 18.7783 4.6591 18.7121 3.59851 18.7783C3.20086 18.7783 3.20086 18.5792 3.20086 18.3145C3.20086 17.7183 3.20086 17.1215 3.20086 16.5253H3.26705C3.26705 15.7967 3.00176 14.9347 3.33323 14.537C3.73088 14.1394 4.65856 14.4709 5.32096 14.4041C5.65243 14.4041 5.91718 14.4041 6.24865 14.4041C8.23692 14.4052 9.16514 15.9296 8.36983 17.6521Z" fill="black"/>
<path d="M49.1877 21.7598C50.844 21.826 52.567 21.7598 54.2232 21.7598C56.2777 21.7598 56.2777 21.7598 56.0786 19.6392C55.8138 16.7899 53.9585 15.0008 51.1749 14.8684C48.0604 14.736 46.1388 16.1937 45.5426 19.1091C45.3435 20.0368 45.3435 20.965 45.4764 21.9584C45.8079 25.3376 47.9286 27.1935 51.374 26.9277C53.7594 26.7291 55.7477 25.1385 55.9462 23.0846C55.2176 23.0846 54.4885 23.0846 53.7594 23.0846C53.3617 23.0846 53.0308 23.2832 52.6993 23.6141C52.0369 24.4761 51.1749 24.6085 50.2478 24.3427C49.2539 24.0779 48.8562 23.4155 48.591 22.554C48.5253 22.0251 48.5253 21.7598 49.1877 21.7598ZM48.6577 18.8444C49.0553 17.7843 49.983 17.3205 51.1093 17.4529C52.1698 17.5858 52.7661 18.3144 52.8984 19.3744C52.9646 19.7059 52.8317 19.7721 52.5008 19.7721C51.9046 19.7721 51.3083 19.7721 50.7116 19.7721C50.2478 19.7721 49.7839 19.7721 49.3201 19.7721C48.4586 19.7721 48.3924 19.7059 48.6577 18.8444Z" fill="black"/>
<path d="M93.5843 19.11L85.3019 13.2124C83.5789 11.8871 81.8564 13.1462 81.8564 14.9354V27.1943C81.8564 28.983 83.6451 30.3083 85.3019 28.9168L93.5181 23.0198C94.6449 22.0921 94.7772 19.9714 93.5843 19.11Z" fill="url(#paint2_linear)"/>
<path d="M93.5843 19.11L85.3019 13.2124C83.5789 11.8871 81.8564 13.1462 81.8564 14.9354V18.447C84.1095 17.5193 86.2296 18.1155 88.4159 19.3085C89.9403 20.17 91.596 21.1639 93.1866 21.6944C93.7829 21.893 94.4458 21.4292 94.3796 20.7662C94.3796 20.0376 94.0481 19.4414 93.5843 19.11Z" fill="url(#paint3_linear)"/>
<path d="M104.651 11.7527H106.308C107.103 11.7527 107.765 12.4151 107.765 13.2104V26.7947H104.651V11.7527Z" fill="#E89D01"/>
<path d="M109.885 11.7527H111.542C112.337 11.7527 113 12.4151 113 13.2104V26.7947H109.885V11.7527Z" fill="#E89D01"/>
<defs>
<linearGradient id="paint0_linear" x1="91.9071" y1="20.3661" x2="80.8388" y2="9.29778" gradientUnits="userSpaceOnUse">
<stop stop-color="#E89D01"/>
<stop offset="0.2391" stop-color="#E89E04"/>
<stop offset="0.4261" stop-color="#E9A20E"/>
<stop offset="0.5955" stop-color="#EBA81F"/>
<stop offset="0.7545" stop-color="#EDB136"/>
<stop offset="0.9048" stop-color="#F0BD54"/>
<stop offset="1" stop-color="#F2C66B"/>
</linearGradient>
<linearGradient id="paint1_linear" x1="73.4692" y1="26.7087" x2="102.752" y2="26.7087" gradientUnits="userSpaceOnUse">
<stop stop-color="white"/>
<stop offset="0.0821" stop-color="#FCF0D7"/>
<stop offset="0.1812" stop-color="#F8E0AE"/>
<stop offset="0.2865" stop-color="#F5D38B"/>
<stop offset="0.3972" stop-color="#F2C86F"/>
<stop offset="0.5152" stop-color="#F0C059"/>
<stop offset="0.6441" stop-color="#EFBA49"/>
<stop offset="0.7916" stop-color="#EEB640"/>
<stop offset="1" stop-color="#EEB53D"/>
</linearGradient>
<linearGradient id="paint2_linear" x1="88.1359" y1="12.6082" x2="88.1359" y2="29.4178" gradientUnits="userSpaceOnUse">
<stop stop-color="#E89D01"/>
<stop offset="0.1916" stop-color="#E89E04"/>
<stop offset="0.3415" stop-color="#E9A20E"/>
<stop offset="0.4773" stop-color="#EBA81F"/>
<stop offset="0.6048" stop-color="#EDB236"/>
<stop offset="0.7264" stop-color="#F0BD54"/>
<stop offset="0.8437" stop-color="#F3CC79"/>
<stop offset="0.9554" stop-color="#F7DCA5"/>
<stop offset="1" stop-color="#F9E4B8"/>
</linearGradient>
<linearGradient id="paint3_linear" x1="88.117" y1="12.6082" x2="88.117" y2="21.6403" gradientUnits="userSpaceOnUse">
<stop stop-color="white"/>
<stop offset="0.0821" stop-color="#FCF0D7"/>
<stop offset="0.1812" stop-color="#F8E0AE"/>
<stop offset="0.2865" stop-color="#F5D38B"/>
<stop offset="0.3972" stop-color="#F2C86F"/>
<stop offset="0.5152" stop-color="#F0C059"/>
<stop offset="0.6441" stop-color="#EFBA49"/>
<stop offset="0.7916" stop-color="#EEB640"/>
<stop offset="1" stop-color="#EEB53D"/>
</linearGradient>
</defs>
</svg>
