<svg width="31" height="24" viewBox="0 0 31 24" fill="none" xmlns="http://www.w3.org/2000/svg">
<path d="M12.037 2.41468L10.4828 -6.10352e-05C4.26964 2.72003 7.62939e-06 8.2234 7.62939e-06 14.3655C7.62939e-06 17.8578 0.963107 20.0128 2.75371 21.9292C3.88022 23.14 5.66387 23.9999 7.53096 23.9999C10.8896 23.9999 13.6155 21.2483 13.6155 17.8578C13.6155 14.6288 11.1435 12.028 8.0073 11.7332C7.44404 11.6805 6.87731 11.6946 6.33839 11.7648C6.33839 10.6697 6.23756 5.58403 12.037 2.41468Z" fill="#CE0000"/>
<path d="M29.4215 2.41468L27.8673 -6.10352e-05C21.6541 2.72003 17.3845 8.2234 17.3845 14.3655C17.3845 17.8578 18.3476 20.0128 20.1382 21.9292C21.2647 23.14 23.0483 23.9999 24.9154 23.9999C28.2741 23.9999 31 21.2483 31 17.8578C31 14.6288 28.5279 12.028 25.3918 11.7332C24.8285 11.6805 24.2618 11.6946 23.7229 11.7648C23.7229 10.6697 23.622 5.58403 29.4215 2.41468Z" fill="#CE0000"/>
</svg>
