<svg width="39" height="41" viewBox="0 0 39 41" fill="none" xmlns="http://www.w3.org/2000/svg">
  <path d="M38.3374 38.5446L24.4768 1.70736C24.1047 0.752785 23.4071 0.28125 22.4071 0.28125H16.0582C15.0582 0.28125 14.3605 0.752785 13.9652 1.70736L0.11628 38.5446L0 39.0507C0 39.3957 0.11628 39.6832 0.348839 39.9017C0.581398 40.1317 0.860468 40.2467 1.20931 40.2467H6.53491C6.65119 40.2467 6.76747 40.2237 6.88375 40.2122C7.25584 40.1547 7.61631 39.9937 7.95352 39.8097L18.7908 33.7028C19.0466 33.5647 19.3489 33.5647 19.6047 33.7028L30.5001 39.8327C30.8141 40.0052 31.1397 40.1547 31.5001 40.2237C31.7094 40.2582 31.9071 40.2812 32.1048 40.2812C32.2327 40.2812 32.349 40.2812 32.4769 40.2582H37.256C37.5699 40.2582 37.8373 40.1432 38.0932 39.9132C38.3374 39.6947 38.4653 39.4072 38.4653 39.0622L38.3374 38.5446ZM18.8024 26.3422L11.3954 30.5285C11.2093 30.632 11 30.448 11.0698 30.264L19.0117 8.86089C19.0815 8.66538 19.3605 8.66538 19.4303 8.86089L27.3489 30.264C27.4187 30.4595 27.2094 30.632 27.0234 30.5285L19.6047 26.3422C19.3605 26.2042 19.0466 26.2042 18.8024 26.3422Z" fill="white"/>
  <path d="M38.3374 38.5446L24.4768 1.70736C24.1047 0.752785 23.4071 0.28125 22.4071 0.28125H16.0582C15.0582 0.28125 14.3605 0.752785 13.9652 1.70736L0.11628 38.5446L0 39.0507C0 39.3957 0.11628 39.6832 0.348839 39.9017C0.581398 40.1317 0.860468 40.2467 1.20931 40.2467H6.53491C6.65119 40.2467 6.76747 40.2237 6.88375 40.2122C7.25584 40.1547 7.61631 39.9937 7.95352 39.8097L18.7908 33.7028C19.0466 33.5647 19.3489 33.5647 19.6047 33.7028L30.5001 39.8327C30.8141 40.0052 31.1397 40.1547 31.5001 40.2237C31.7094 40.2582 31.9071 40.2812 32.1048 40.2812C32.2327 40.2812 32.349 40.2812 32.4769 40.2582H37.256C37.5699 40.2582 37.8373 40.1432 38.0932 39.9132C38.3374 39.6947 38.4653 39.4072 38.4653 39.0622L38.3374 38.5446ZM18.8024 26.3422L11.3954 30.5285C11.2093 30.632 11 30.448 11.0698 30.264L19.0117 8.86089C19.0815 8.66538 19.3605 8.66538 19.4303 8.86089L27.3489 30.264C27.4187 30.4595 27.2094 30.632 27.0234 30.5285L19.6047 26.3422C19.3605 26.2042 19.0466 26.2042 18.8024 26.3422Z" fill="url(#paint0_linear)"/>
  <defs>
    <linearGradient id="paint0_linear" x1="1.38884" y1="35.6222" x2="38.2686" y2="34.522" gradientUnits="userSpaceOnUse">
      <stop stop-color="#C73414"/>
      <stop offset="0.0756" stop-color="#C52F0F"/>
      <stop offset="1" stop-color="#FD4305"/>
    </linearGradient>
  </defs>
</svg>
