<svg width="38" height="38" viewBox="0 0 38 38" fill="none" xmlns="http://www.w3.org/2000/svg">
<path d="M15.3333 27.25L26.3333 19L15.3333 10.75V27.25ZM19 0.666664C8.87996 0.666664 0.666626 8.88 0.666626 19C0.666626 29.12 8.87996 37.3333 19 37.3333C29.12 37.3333 37.3333 29.12 37.3333 19C37.3333 8.88 29.12 0.666664 19 0.666664ZM19 33.6667C10.915 33.6667 4.33329 27.085 4.33329 19C4.33329 10.915 10.915 4.33333 19 4.33333C27.085 4.33333 33.6666 10.915 33.6666 19C33.6666 27.085 27.085 33.6667 19 33.6667Z" fill="#CE0000"/>
</svg>
