<svg width="36" height="38" viewBox="0 0 36 38" fill="none" xmlns="http://www.w3.org/2000/svg">
<path d="M31.6219 20.7965C31.6952 20.2098 31.7502 19.6232 31.7502 18.9998C31.7502 18.3765 31.6952 17.7898 31.6219 17.2032L35.4902 14.1782C35.8385 13.9032 35.9302 13.4082 35.7102 13.0048L32.0435 6.6615C31.8785 6.36817 31.5669 6.20317 31.2369 6.20317C31.1269 6.20317 31.0169 6.2215 30.9252 6.25817L26.3602 8.0915C25.4069 7.35817 24.3802 6.75317 23.2619 6.29484L22.5652 1.4365C22.5102 0.996504 22.1252 0.666504 21.6669 0.666504H14.3335C13.8752 0.666504 13.4902 0.996504 13.4352 1.4365L12.7385 6.29484C11.6202 6.75317 10.5935 7.3765 9.64019 8.0915L5.07519 6.25817C4.96519 6.2215 4.85519 6.20317 4.74519 6.20317C4.43353 6.20317 4.12186 6.36817 3.95686 6.6615L0.290194 13.0048C0.0518605 13.4082 0.161861 13.9032 0.510194 14.1782L4.37853 17.2032C4.30519 17.7898 4.25019 18.3948 4.25019 18.9998C4.25019 19.6048 4.30519 20.2098 4.37853 20.7965L0.510194 23.8215C0.161861 24.0965 0.0701938 24.5915 0.290194 24.9948L3.95686 31.3382C4.12186 31.6315 4.43353 31.7965 4.76353 31.7965C4.87353 31.7965 4.98353 31.7782 5.07519 31.7415L9.64019 29.9082C10.5935 30.6415 11.6202 31.2465 12.7385 31.7048L13.4352 36.5632C13.4902 37.0032 13.8752 37.3332 14.3335 37.3332H21.6669C22.1252 37.3332 22.5102 37.0032 22.5652 36.5632L23.2619 31.7048C24.3802 31.2465 25.4069 30.6232 26.3602 29.9082L30.9252 31.7415C31.0352 31.7782 31.1452 31.7965 31.2552 31.7965C31.5669 31.7965 31.8785 31.6315 32.0435 31.3382L35.7102 24.9948C35.9302 24.5915 35.8385 24.0965 35.4902 23.8215L31.6219 20.7965ZM27.9919 17.6615C28.0652 18.2298 28.0835 18.6148 28.0835 18.9998C28.0835 19.3848 28.0469 19.7882 27.9919 20.3382L27.7352 22.4098L29.3669 23.6932L31.3469 25.2332L30.0635 27.4515L27.7352 26.5165L25.8285 25.7465L24.1785 26.9932C23.3902 27.5798 22.6385 28.0198 21.8869 28.3315L19.9435 29.1198L19.6502 31.1915L19.2835 33.6665H16.7169L16.3685 31.1915L16.0752 29.1198L14.1319 28.3315C13.3435 28.0015 12.6102 27.5798 11.8769 27.0298L10.2085 25.7465L8.26519 26.5348L5.93686 27.4698L4.65353 25.2515L6.63353 23.7115L8.26519 22.4282L8.00853 20.3565C7.95353 19.7882 7.91686 19.3665 7.91686 18.9998C7.91686 18.6332 7.95353 18.2115 8.00853 17.6615L8.26519 15.5898L6.63353 14.3065L4.65353 12.7665L5.93686 10.5482L8.26519 11.4832L10.1719 12.2532L11.8219 11.0065C12.6102 10.4198 13.3619 9.97984 14.1135 9.66817L16.0569 8.87984L16.3502 6.80817L16.7169 4.33317H19.2652L19.6135 6.80817L19.9069 8.87984L21.8502 9.66817C22.6385 9.99817 23.3719 10.4198 24.1052 10.9698L25.7735 12.2532L27.7169 11.4648L30.0452 10.5298L31.3285 12.7482L29.3669 14.3065L27.7352 15.5898L27.9919 17.6615ZM18.0002 11.6665C13.9485 11.6665 10.6669 14.9482 10.6669 18.9998C10.6669 23.0515 13.9485 26.3332 18.0002 26.3332C22.0519 26.3332 25.3335 23.0515 25.3335 18.9998C25.3335 14.9482 22.0519 11.6665 18.0002 11.6665ZM18.0002 22.6665C15.9835 22.6665 14.3335 21.0165 14.3335 18.9998C14.3335 16.9832 15.9835 15.3332 18.0002 15.3332C20.0169 15.3332 21.6669 16.9832 21.6669 18.9998C21.6669 21.0165 20.0169 22.6665 18.0002 22.6665Z" fill="white"/>
</svg>
