<svg width="37" height="38" viewBox="0 0 37 38" fill="none" xmlns="http://www.w3.org/2000/svg">
<path d="M14.1737 11.0067C14.5953 10.0901 14.8337 9.08175 14.8337 8.00008C14.8337 3.94841 11.552 0.666748 7.50033 0.666748C3.44866 0.666748 0.166992 3.94841 0.166992 8.00008C0.166992 12.0517 3.44866 15.3334 7.50033 15.3334C8.58199 15.3334 9.59032 15.0951 10.507 14.6734L14.8337 19.0001L10.507 23.3267C9.59032 22.9051 8.58199 22.6667 7.50033 22.6667C3.44866 22.6667 0.166992 25.9484 0.166992 30.0001C0.166992 34.0517 3.44866 37.3334 7.50033 37.3334C11.552 37.3334 14.8337 34.0517 14.8337 30.0001C14.8337 28.9184 14.5953 27.9101 14.1737 26.9934L18.5003 22.6667L31.3337 35.5001H36.8337V33.6667L14.1737 11.0067ZM7.50033 11.6667C5.48366 11.6667 3.83366 10.0351 3.83366 8.00008C3.83366 5.96508 5.48366 4.33341 7.50033 4.33341C9.51699 4.33341 11.167 5.96508 11.167 8.00008C11.167 10.0351 9.51699 11.6667 7.50033 11.6667ZM7.50033 33.6667C5.48366 33.6667 3.83366 32.0351 3.83366 30.0001C3.83366 27.9651 5.48366 26.3334 7.50033 26.3334C9.51699 26.3334 11.167 27.9651 11.167 30.0001C11.167 32.0351 9.51699 33.6667 7.50033 33.6667ZM18.5003 19.9167C17.987 19.9167 17.5837 19.5134 17.5837 19.0001C17.5837 18.4867 17.987 18.0834 18.5003 18.0834C19.0137 18.0834 19.417 18.4867 19.417 19.0001C19.417 19.5134 19.0137 19.9167 18.5003 19.9167ZM31.3337 2.50008L20.3337 13.5001L24.0003 17.1667L36.8337 4.33341V2.50008H31.3337Z" fill="#CE0000"/>
</svg>
