<?xml version="1.0" encoding="UTF-8"?>
<svg id="Layer_2" data-name="Layer 2" xmlns="http://www.w3.org/2000/svg" xmlns:xlink="http://www.w3.org/1999/xlink" viewBox="0 0 646.92 295.22">
  <defs>
    <style>
      .cls-1 {
        clip-path: url(#clippath-2);
      }

      .cls-2 {
        fill: #dfb13f;
      }

      .cls-2, .cls-3, .cls-4, .cls-5, .cls-6, .cls-7, .cls-8 {
        stroke-width: 0px;
      }

      .cls-3 {
        fill: none;
      }

      .cls-9 {
        clip-path: url(#clippath-1);
      }

      .cls-4 {
        fill: #2c2e6b;
      }

      .cls-5 {
        fill: url(#radial-gradient-2);
      }

      .cls-10 {
        clip-path: url(#clippath);
      }

      .cls-6 {
        fill: url(#radial-gradient);
      }

      .cls-11 {
        clip-path: url(#clippath-3);
      }

      .cls-7 {
        fill: url(#radial-gradient-3);
      }

      .cls-8 {
        fill: url(#radial-gradient-4);
      }
    </style>
    <clipPath id="clippath">
      <path class="cls-3" d="M21.38,123.56c0-52.17,42.29-94.48,94.48-94.48s94.48,42.31,94.48,94.48-42.3,94.5-94.48,94.5S21.38,175.75,21.38,123.56M41.34,44.61C-2.25,85.76-4.25,154.47,36.91,198.08c41.14,43.63,109.86,45.6,153.46,4.46,43.62-41.14,45.6-109.85,4.46-153.48-21.34-22.63-50.12-34.06-78.97-34.06-26.74,0-53.52,9.81-74.51,29.61"/>
    </clipPath>
    <radialGradient id="radial-gradient" cx="1931.46" cy="-360.66" fx="1931.46" fy="-360.66" r="1" gradientTransform="translate(-209576.51 -39031.69) scale(108.57 -108.57)" gradientUnits="userSpaceOnUse">
      <stop offset="0" stop-color="#4c58a6"/>
      <stop offset="1" stop-color="#2c2e6b"/>
    </radialGradient>
    <clipPath id="clippath-1">
      <path class="cls-3" d="M65.47,216.38s23.17,2.88,30.62-3.93v-102.04l-30.62-.23v106.2Z"/>
    </clipPath>
    <radialGradient id="radial-gradient-2" cx="1863.69" cy="-414.07" fx="1863.69" fy="-414.07" r="1" gradientTransform="translate(-73131.3 -16102.44) scale(39.28 -39.28)" xlink:href="#radial-gradient"/>
    <clipPath id="clippath-2">
      <path class="cls-3" d="M102.59,204.46s23.17-17.72,30.61-24.54v-92.43l-30.61-.23v117.2Z"/>
    </clipPath>
    <radialGradient id="radial-gradient-3" cx="1872.48" cy="-407.14" fx="1872.48" fy="-407.14" r="1" gradientTransform="translate(-80074.43 -17290.82) scale(42.83 -42.83)" xlink:href="#radial-gradient"/>
    <clipPath id="clippath-3">
      <path class="cls-3" d="M141.27,180.08s23.32-20.81,30.61-28.47V52.72l-30.61-.23v127.59Z"/>
    </clipPath>
    <radialGradient id="radial-gradient-4" cx="1879.96" cy="-401.25" fx="1879.96" fy="-401.25" r="1" gradientTransform="translate(-87053.31 -18497.31) scale(46.39 -46.39)" xlink:href="#radial-gradient"/>
  </defs>
  <g id="Layer_1-2" data-name="Layer 1">
    <g>
      <rect class="cls-4" x="358.3" y="66.22" width="28.9" height="130.72"/>
      <rect class="cls-2" x="404.81" y="66.89" width="28.91" height="23.18"/>
      <rect class="cls-4" x="404.81" y="106.11" width="28.91" height="91.5"/>
      <path class="cls-4" d="M454.21,105.44h28.9v17.08h1.18c2.01-6.85,5.26-11.68,9.75-14.47,3.81-2.44,9.35-3.66,16.64-3.66,18.93,0,28.4,9.77,28.4,29.28v63.27h-28.9v-56.15c0-4.64-.79-7.94-2.36-9.91-1.9-2.2-5.1-3.3-9.57-3.3-5.94,0-10.08,1.79-12.44,5.39-1.79,2.78-2.7,7.36-2.7,13.73v50.24h-28.9v-91.5Z"/>
      <rect class="cls-4" x="557.25" y="66.89" width="28.89" height="130.72"/>
      <polygon class="cls-2" points="612.37 197.61 586.59 151.62 608.67 106.11 640.43 106.11 615.56 150.03 646.14 197.61 612.37 197.61"/>
      <g class="cls-10">
        <rect class="cls-6" x="-4.25" y="15" width="240.22" height="228.67"/>
      </g>
      <path class="cls-2" d="M48.19,126.36s.04-.09.04-.13c-1.28,2.32-21.64,42.17,19.44,48.84l-.38,11.33c-5.21.88-52.85,3.79-64.97-21.07C-12.33,135.25,40.89,65.12,200.17,0c-3.4,2.27-112.5,75.29-137.93,107.27,0,0-9.2,8.23-13.94,18.85l-.03.03c0,.06-.04.13-.09.22"/>
      <path class="cls-2" d="M70.4,156.36v15.05c-4.8-1.25-33.17-10.01-20.14-42.06-.74,1.96-1.31,3.97-1.65,6.02.32-.81.54-1.26.54-1.26-3.54,20.52,16.53,21.66,21.24,22.25"/>
      <g class="cls-9">
        <rect class="cls-5" x="65.47" y="110.18" width="30.62" height="109.08"/>
      </g>
      <g class="cls-1">
        <rect class="cls-7" x="102.59" y="87.26" width="30.61" height="117.2"/>
      </g>
      <g class="cls-11">
        <rect class="cls-8" x="141.27" y="52.49" width="30.61" height="127.59"/>
      </g>
      <path class="cls-2" d="M25.67,243.16c3.41-2.27,120.38-68.1,145.82-100.07,0,0,9.2-8.23,13.94-18.86l.03-.03s.01-.01.04-.06c1.22-2.17,18.87-37.87-13.57-47.48l.13-14.92c15-1.51,50.19-1.05,59.34,23.29,11.77,31.34-49.64,105.98-205.73,158.14"/>
      <path class="cls-2" d="M183.69,119.68c.73-1.94,1.31-3.95,1.63-5.98-.29.8-.52,1.25-.52,1.25,2.31-13.39-5.82-18.8-12.91-21.06v-12.8c9.28,5.03,20.94,16.13,11.81,38.59"/>
      <path class="cls-4" d="M328.94,128.08c-3.71-2.78-8.02-5.15-12.79-7.03-1.49-.63-6.05-2.13-13.96-4.62-6.39-1.94-10.81-4.15-13.12-6.55-1.89-2.02-2.81-4.34-2.81-7.07,0-3.38,1.05-6.09,3.23-8.3,2.18-2.22,5.01-3.3,8.65-3.3s6.94,1.12,9.74,3.44c2.7,2.23,4.02,4.85,4.02,8v1.46h28.61v-1.46c0-9.99-4.16-18.69-12.37-25.86-8.14-7.11-17.75-10.72-28.57-10.72s-20.99,3.51-29.01,10.42c-8.09,6.98-12.19,15.78-12.19,26.15,0,2.34.26,4.64.75,6.82.49,2.18,1.25,4.41,2.24,6.62,2.03,4.51,4.74,8.35,8.05,11.41,3.28,3.03,7.09,5.51,11.31,7.35,2.39,1.07,6.53,2.48,12.65,4.3,4.74,1.45,8.41,2.75,10.86,3.84,3.85,1.86,6.7,3.86,8.45,5.91,2.17,2.64,3.23,5.82,3.23,9.75s-1.53,7.34-4.66,10.06c-1.58,1.35-3.35,2.36-5.26,3-1.93.66-4.03.99-6.25.99-4.9,0-9.03-1.27-12.26-3.79-3.41-2.67-5.06-6.03-5.06-10.26v-1.46h-28.96v1.46c0,11.03,4.59,20.45,13.64,28,8.96,7.48,19.52,11.27,31.4,11.27s23.11-3.95,31.92-11.74c8.88-7.85,13.39-17.55,13.39-28.84,0-12.26-5.01-22.11-14.86-29.27"/>
      <g>
        <path class="cls-4" d="M29.76,284.06c-1.83,1.76-4.04,2.64-6.65,2.64-2.79,0-5.08-.85-6.87-2.56-1.8-1.71-2.72-3.96-2.77-6.75h3.14c.18,4.31,2.35,6.46,6.5,6.46,1.75,0,3.23-.59,4.44-1.77,1.24-1.21,1.86-2.69,1.86-4.44,0-1.88-.74-3.4-2.21-4.54-.59-.45-1.33-.87-2.23-1.26-.67-.28-1.52-.56-2.54-.87-1.31-.38-2.35-.75-3.14-1.09-1.05-.44-1.91-.94-2.58-1.49-1.6-1.32-2.39-3.21-2.39-5.68s.86-4.45,2.58-6.05c1.69-1.57,3.76-2.35,6.21-2.35s4.46.8,6.13,2.42c1.69,1.64,2.54,3.67,2.54,6.09h-3.14c0-1.54-.54-2.87-1.61-3.98-1.09-1.13-2.39-1.69-3.92-1.69s-2.92.52-4,1.55c-1.1,1.03-1.65,2.33-1.65,3.9,0,1.82.84,3.2,2.52,4.15.62.34,1.42.67,2.41.99l2.5.74c2.38.72,4.22,1.78,5.51,3.2,1.43,1.57,2.15,3.52,2.15,5.84,0,2.59-.93,4.77-2.79,6.54Z"/>
        <path class="cls-4" d="M57.15,283.21c-2.39,2.33-5.33,3.49-8.81,3.49-3.89,0-6.9-1.54-9.02-4.62h-.08v12.18h-2.95v-31.22h2.95v4.04h.08c2.19-3.1,5.19-4.64,9.02-4.64,3.44,0,6.36,1.15,8.75,3.45,2.45,2.33,3.67,5.21,3.67,8.65s-1.2,6.36-3.61,8.69ZM55.12,267.82c-1.79-1.82-4.05-2.72-6.79-2.72s-4.8.94-6.6,2.83c-1.77,1.86-2.66,4.09-2.66,6.69s.89,4.82,2.66,6.65c1.8,1.86,4,2.79,6.6,2.79s4.96-.89,6.75-2.66c1.8-1.79,2.7-4.03,2.7-6.73s-.89-5.01-2.66-6.83Z"/>
        <path class="cls-4" d="M88.06,275.66h-21.05c.11,2.27,1.07,4.24,2.87,5.9,1.79,1.65,3.82,2.48,6.11,2.48,1.82,0,3.48-.48,4.99-1.44,1.57-1,2.66-2.35,3.28-4.02h3.14c-.85,2.42-2.33,4.38-4.42,5.88-2.09,1.5-4.41,2.25-6.95,2.25-3.33,0-6.18-1.19-8.54-3.57-2.34-2.35-3.51-5.19-3.51-8.52s1.17-6.17,3.51-8.56c2.37-2.41,5.2-3.61,8.5-3.61s6.22,1.23,8.58,3.69c2.35,2.44,3.53,5.33,3.53,8.69l-.04.85ZM85.07,273c-.39-2.28-1.41-4.17-3.08-5.65-1.68-1.5-3.67-2.25-5.96-2.25s-4.27.75-5.96,2.25c-1.67,1.49-2.68,3.37-3.05,5.65h18.06Z"/>
        <path class="cls-4" d="M115.53,275.66h-21.05c.11,2.27,1.07,4.24,2.87,5.9,1.79,1.65,3.82,2.48,6.11,2.48,1.82,0,3.48-.48,4.99-1.44,1.57-1,2.66-2.35,3.28-4.02h3.14c-.85,2.42-2.33,4.38-4.42,5.88-2.09,1.5-4.41,2.25-6.95,2.25-3.33,0-6.18-1.19-8.54-3.57-2.34-2.35-3.51-5.19-3.51-8.52s1.17-6.17,3.51-8.56c2.37-2.41,5.2-3.61,8.5-3.61s6.22,1.23,8.58,3.69c2.35,2.44,3.53,5.33,3.53,8.69l-.04.85ZM112.54,273c-.39-2.28-1.41-4.17-3.08-5.65-1.68-1.5-3.67-2.25-5.96-2.25s-4.27.75-5.96,2.25c-1.67,1.49-2.68,3.37-3.05,5.65h18.06Z"/>
        <path class="cls-4" d="M140.46,286.14v-4.07h-.08c-2.06,3.08-5.06,4.62-9,4.62-3.48,0-6.42-1.16-8.81-3.49-2.41-2.33-3.61-5.22-3.61-8.69s1.22-6.32,3.65-8.65c2.41-2.3,5.33-3.45,8.77-3.45,3.92,0,6.92,1.52,9,4.56h.08v-12.13h2.97v31.29h-2.97ZM137.98,267.92c-1.8-1.88-4-2.83-6.6-2.83-2.74,0-5,.91-6.79,2.72s-2.68,4.09-2.68,6.83.9,4.94,2.7,6.73c1.8,1.78,4.06,2.66,6.77,2.66s4.8-.93,6.6-2.79c1.77-1.83,2.66-4.04,2.66-6.65s-.89-4.83-2.66-6.69Z"/>
        <path class="cls-4" d="M180.33,283.11c-2.38,2.39-5.23,3.59-8.54,3.59s-6.08-1.18-8.46-3.55c-2.39-2.37-3.59-5.17-3.59-8.42s1.17-6.24,3.51-8.65c2.35-2.44,5.2-3.65,8.54-3.65s6.13,1.2,8.52,3.59c2.39,2.39,3.59,5.24,3.59,8.54s-1.19,6.16-3.57,8.54ZM178.29,267.88c-1.79-1.86-3.94-2.79-6.46-2.79s-4.77.96-6.54,2.89c-1.73,1.87-2.6,4.11-2.6,6.71s.89,4.72,2.66,6.56c1.79,1.86,3.95,2.79,6.48,2.79s4.8-.95,6.56-2.85c1.71-1.86,2.56-4.11,2.56-6.75s-.89-4.72-2.66-6.56Z"/>
        <path class="cls-4" d="M192.96,265.69v20.45h-2.95v-20.45h-3.59v-2.66h3.59l.04-.87c.01-.33.03-.62.06-.87.05-.65.15-1.22.29-1.73.51-1.91,1.58-3.29,3.2-4.15,1.33-.7,3.1-1.07,5.28-1.09v2.75c-3.95,0-5.92,1.93-5.92,5.8v.17h5.92v2.66h-5.92Z"/>
        <path class="cls-4" d="M219.01,265.69v20.45h-2.95v-20.45h-4.87v-2.66h4.87v-8.17h2.95v8.17h5.53v2.66h-5.53Z"/>
        <path class="cls-4" d="M250.6,275.66h-21.05c.11,2.27,1.07,4.24,2.87,5.9,1.79,1.65,3.82,2.48,6.11,2.48,1.82,0,3.48-.48,4.99-1.44,1.57-1,2.66-2.35,3.28-4.02h3.14c-.85,2.42-2.33,4.38-4.42,5.88-2.09,1.5-4.41,2.25-6.95,2.25-3.33,0-6.18-1.19-8.54-3.57-2.34-2.35-3.51-5.19-3.51-8.52s1.17-6.17,3.51-8.56c2.37-2.41,5.2-3.61,8.5-3.61s6.22,1.23,8.58,3.69c2.35,2.44,3.53,5.33,3.53,8.69l-.04.85ZM247.61,273c-.39-2.28-1.41-4.17-3.08-5.65-1.68-1.5-3.67-2.25-5.96-2.25s-4.27.75-5.96,2.25c-1.67,1.49-2.68,3.37-3.05,5.65h18.06Z"/>
        <path class="cls-4" d="M278.03,279.33c-2.49,4.91-6.32,7.37-11.5,7.37-3.44,0-6.36-1.16-8.77-3.47-2.44-2.34-3.65-5.21-3.65-8.63s1.22-6.27,3.67-8.65c2.44-2.35,5.35-3.53,8.75-3.53,2.54,0,4.85.67,6.91,2,2.12,1.38,3.65,3.23,4.58,5.57h-3.26c-1.72-3.27-4.44-4.91-8.15-4.91-2.66,0-4.9.91-6.75,2.72-1.87,1.82-2.81,4.05-2.81,6.71s.92,4.94,2.77,6.77c1.84,1.83,4.11,2.74,6.79,2.74,3.81,0,6.53-1.57,8.15-4.71h3.26Z"/>
        <path class="cls-4" d="M299.72,286.14v-12.71c0-1.24-.17-2.38-.5-3.43-.37-1.22-.94-2.2-1.71-2.93-1.4-1.32-3.08-1.98-5.02-1.98s-3.63.66-5.04,1.98c-.76.72-1.32,1.67-1.69,2.85-.32,1.02-.48,2.11-.48,3.28v12.94h-2.95v-31.29h2.95v11.12h.08c1.53-2.37,3.9-3.55,7.12-3.55s5.76,1.03,7.57,3.1c1.73,1.98,2.6,4.62,2.6,7.9v12.71h-2.95Z"/>
        <path class="cls-4" d="M309.23,288.97h-3.14l3.71-8.15h3.14l-3.71,8.15Z"/>
        <path class="cls-4" d="M346.13,284.06c-1.83,1.76-4.04,2.64-6.65,2.64-2.79,0-5.08-.85-6.87-2.56-1.8-1.71-2.72-3.96-2.77-6.75h3.14c.18,4.31,2.35,6.46,6.5,6.46,1.75,0,3.23-.59,4.44-1.77,1.24-1.21,1.86-2.69,1.86-4.44,0-1.88-.74-3.4-2.21-4.54-.59-.45-1.33-.87-2.23-1.26-.67-.28-1.52-.56-2.54-.87-1.31-.38-2.35-.75-3.14-1.09-1.05-.44-1.91-.94-2.58-1.49-1.6-1.32-2.39-3.21-2.39-5.68s.86-4.45,2.58-6.05c1.69-1.57,3.76-2.35,6.21-2.35s4.46.8,6.13,2.42c1.69,1.64,2.54,3.67,2.54,6.09h-3.14c0-1.54-.54-2.87-1.61-3.98-1.09-1.13-2.39-1.69-3.92-1.69s-2.92.52-4,1.55c-1.1,1.03-1.65,2.33-1.65,3.9,0,1.82.84,3.2,2.52,4.15.62.34,1.42.67,2.41.99l2.5.74c2.38.72,4.22,1.78,5.51,3.2,1.43,1.57,2.15,3.52,2.15,5.84,0,2.59-.93,4.77-2.79,6.54Z"/>
        <path class="cls-4" d="M358.35,265.69v20.45h-2.95v-20.45h-4.87v-2.66h4.87v-8.17h2.95v8.17h5.53v2.66h-5.53Z"/>
        <path class="cls-4" d="M376.57,265.57c-4.4.36-6.6,2.71-6.6,7.06v13.52h-2.95v-23.11h2.95v3.34h.08c.61-1.39,1.48-2.39,2.62-3.01.94-.5,2.24-.8,3.9-.93v3.14Z"/>
        <path class="cls-4" d="M402.66,275.66h-21.05c.11,2.27,1.07,4.24,2.87,5.9,1.79,1.65,3.82,2.48,6.11,2.48,1.82,0,3.48-.48,4.99-1.44,1.57-1,2.66-2.35,3.28-4.02h3.14c-.85,2.42-2.33,4.38-4.42,5.88-2.09,1.5-4.41,2.25-6.95,2.25-3.33,0-6.18-1.19-8.54-3.57-2.34-2.35-3.51-5.19-3.51-8.52s1.17-6.17,3.51-8.56c2.37-2.41,5.2-3.61,8.5-3.61s6.22,1.23,8.58,3.69c2.35,2.44,3.53,5.33,3.53,8.69l-.04.85ZM399.67,273c-.39-2.28-1.41-4.17-3.08-5.65-1.68-1.5-3.67-2.25-5.96-2.25s-4.27.75-5.96,2.25c-1.67,1.49-2.68,3.37-3.05,5.65h18.06Z"/>
        <path class="cls-4" d="M424.58,286.14v-12.71c0-1.24-.17-2.38-.5-3.43-.37-1.22-.94-2.2-1.71-2.93-1.4-1.32-3.07-1.98-5.01-1.98s-3.63.66-5.04,1.98c-.76.72-1.32,1.67-1.69,2.85-.32,1.02-.47,2.11-.47,3.28v12.94h-2.95v-23.11h2.95v2.95h.08c1.53-2.37,3.9-3.55,7.12-3.55s5.76,1.03,7.57,3.1c1.73,1.98,2.6,4.62,2.6,7.9v12.71h-2.95Z"/>
        <path class="cls-4" d="M455.82,282.51c0,.88-.02,1.63-.06,2.25-.05.8-.14,1.52-.27,2.17-.32,1.54-.91,2.88-1.77,4.02-2.16,2.85-5.22,4.27-9.18,4.27-2.83,0-5.3-.73-7.39-2.19-2.17-1.5-3.65-3.6-4.44-6.29h3.14c1.54,3.88,4.42,5.82,8.65,5.82,2.59,0,4.64-.79,6.15-2.37,1.49-1.55,2.23-3.63,2.23-6.23v-2.04h-.08c-.81,1.54-2.07,2.74-3.78,3.59-1.57.8-3.28,1.2-5.14,1.2-3.36,0-6.21-1.16-8.54-3.49-2.37-2.34-3.55-5.18-3.55-8.52s1.17-6.25,3.51-8.65c2.35-2.41,5.21-3.61,8.59-3.61,3.91,0,6.88,1.58,8.92,4.73h.08v-4.13h2.95v19.48ZM450.39,267.94c-1.79-1.9-3.96-2.85-6.52-2.85s-4.75.95-6.52,2.85c-1.75,1.84-2.62,4.07-2.62,6.67s.87,4.77,2.62,6.6c1.77,1.89,3.95,2.83,6.52,2.83s4.7-.94,6.5-2.83c1.77-1.84,2.66-4.04,2.66-6.6s-.88-4.79-2.64-6.67Z"/>
        <path class="cls-4" d="M467.07,265.69v20.45h-2.95v-20.45h-4.87v-2.66h4.87v-8.17h2.95v8.17h5.53v2.66h-5.53Z"/>
        <path class="cls-4" d="M492.97,286.14v-12.71c0-1.24-.17-2.38-.5-3.43-.37-1.22-.94-2.2-1.71-2.93-1.4-1.32-3.08-1.98-5.02-1.98s-3.63.66-5.04,1.98c-.76.72-1.32,1.67-1.69,2.85-.32,1.02-.48,2.11-.48,3.28v12.94h-2.95v-31.29h2.95v11.12h.08c1.53-2.37,3.9-3.55,7.12-3.55s5.76,1.03,7.57,3.1c1.73,1.98,2.6,4.62,2.6,7.9v12.71h-2.95Z"/>
        <path class="cls-4" d="M532.84,283.11c-2.38,2.39-5.23,3.59-8.54,3.59s-6.08-1.18-8.46-3.55c-2.39-2.37-3.59-5.17-3.59-8.42s1.17-6.24,3.51-8.65c2.35-2.44,5.2-3.65,8.54-3.65s6.13,1.2,8.52,3.59c2.39,2.39,3.59,5.24,3.59,8.54s-1.19,6.16-3.57,8.54ZM530.8,267.88c-1.79-1.86-3.94-2.79-6.46-2.79s-4.77.96-6.54,2.89c-1.73,1.87-2.6,4.11-2.6,6.71s.89,4.72,2.66,6.56c1.79,1.86,3.95,2.79,6.48,2.79s4.8-.95,6.56-2.85c1.71-1.86,2.56-4.11,2.56-6.75s-.89-4.72-2.66-6.56Z"/>
        <path class="cls-4" d="M545.47,265.69v20.45h-2.95v-20.45h-3.59v-2.66h3.59l.04-.87c.01-.33.03-.62.06-.87.05-.65.15-1.22.29-1.73.51-1.91,1.58-3.29,3.2-4.15,1.33-.7,3.1-1.07,5.28-1.09v2.75c-3.95,0-5.92,1.93-5.92,5.8v.17h5.92v2.66h-5.92Z"/>
        <path class="cls-4" d="M571.51,265.69v20.45h-2.95v-20.45h-4.87v-2.66h4.87v-8.17h2.95v8.17h5.53v2.66h-5.53Z"/>
        <path class="cls-4" d="M589.74,265.57c-4.4.36-6.6,2.71-6.6,7.06v13.52h-2.95v-23.11h2.95v3.34h.08c.61-1.39,1.48-2.39,2.62-3.01.94-.5,2.24-.8,3.9-.93v3.14Z"/>
        <path class="cls-4" d="M610.97,286.14v-3.59h-.08c-.65,1.36-1.67,2.41-3.08,3.14-1.28.67-2.72,1.01-4.33,1.01-3.47,0-6.12-1.16-7.95-3.47-.76-.96-1.3-2.14-1.63-3.53-.26-1.13-.39-2.44-.39-3.92v-12.75h2.95v12.71c0,2.59.51,4.57,1.53,5.94,1.17,1.57,3,2.35,5.49,2.35,1.95,0,3.59-.62,4.91-1.88.94-.89,1.59-1.95,1.96-3.18.3-.98.45-2.22.45-3.74v-12.22h2.95v23.11h-2.79Z"/>
        <path class="cls-4" d="M624.71,286.7c-2.06,0-3.76-.67-5.1-2.02-1.33-1.35-2-3.05-2-5.12v-.27h2.95c.05,3.17,1.44,4.75,4.15,4.75,2.88,0,4.31-1.38,4.31-4.15,0-1.35-.56-2.42-1.67-3.22-.44-.32-1.02-.63-1.73-.93l-1.96-.76c-.83-.32-1.49-.6-1.98-.85-.69-.36-1.26-.74-1.71-1.16-1.11-1.02-1.67-2.39-1.67-4.13,0-1.88.63-3.43,1.88-4.62,1.24-1.2,2.81-1.8,4.71-1.8,1.77,0,3.27.61,4.48,1.82,1.21,1.21,1.82,2.7,1.82,4.48h-2.95c-.15-2.42-1.31-3.63-3.47-3.63-2.34,0-3.51,1.16-3.51,3.47,0,1.16.56,2.08,1.67,2.77.43.26,1,.53,1.73.8l.47.19c.11.04.27.1.5.19l.99.37c.8.32,1.46.62,1.98.91.69.37,1.26.79,1.71,1.26,1.11,1.14,1.67,2.68,1.67,4.6,0,4.71-2.42,7.06-7.26,7.06Z"/>
        <path class="cls-4" d="M641.39,265.69v20.45h-2.95v-20.45h-4.87v-2.66h4.87v-8.17h2.95v8.17h5.53v2.66h-5.53Z"/>
      </g>
    </g>
  </g>
</svg>