<svg width="42" height="30" viewBox="0 0 42 30" fill="none" xmlns="http://www.w3.org/2000/svg">
<path d="M29.5615 17.0715C32.0732 18.7765 33.8332 21.0865 33.8332 24.1665V29.6665H41.1665V24.1665C41.1665 20.1699 34.6215 17.8049 29.5615 17.0715Z" fill="#CE0000"/>
<path d="M26.4999 14.9999C30.5515 14.9999 33.8332 11.7183 33.8332 7.66658C33.8332 3.61492 30.5515 0.333252 26.4999 0.333252C25.6382 0.333252 24.8315 0.516585 24.0615 0.773252C25.5832 2.66158 26.4999 5.06325 26.4999 7.66658C26.4999 10.2699 25.5832 12.6716 24.0615 14.5599C24.8315 14.8166 25.6382 14.9999 26.4999 14.9999Z" fill="#CE0000"/>
<path d="M15.4993 14.9999C19.551 14.9999 22.8327 11.7183 22.8327 7.66658C22.8327 3.61492 19.551 0.333252 15.4993 0.333252C11.4477 0.333252 8.16602 3.61492 8.16602 7.66658C8.16602 11.7183 11.4477 14.9999 15.4993 14.9999ZM15.4993 3.99992C17.516 3.99992 19.166 5.64992 19.166 7.66658C19.166 9.68325 17.516 11.3333 15.4993 11.3333C13.4827 11.3333 11.8327 9.68325 11.8327 7.66658C11.8327 5.64992 13.4827 3.99992 15.4993 3.99992Z" fill="#CE0000"/>
<path d="M15.4997 16.8333C10.6047 16.8333 0.833008 19.2899 0.833008 24.1666V29.6666H30.1663V24.1666C30.1663 19.2899 20.3947 16.8333 15.4997 16.8333ZM26.4997 25.9999H4.49967V24.1849C4.86634 22.8649 10.5497 20.4999 15.4997 20.4999C20.4497 20.4999 26.133 22.8649 26.4997 24.1666V25.9999Z" fill="#CE0000"/>
</svg>
