<svg width="48" height="48" viewBox="0 0 48 48" fill="none" xmlns="http://www.w3.org/2000/svg">
<g id="Frame" clip-path="url(#clip0_53_385)">
<path id="Vector" d="M10 42V10C10 8.93913 10.4214 7.92172 11.1716 7.17157C11.9217 6.42143 12.9391 6 14 6H34C35.0609 6 36.0783 6.42143 36.8284 7.17157C37.5786 7.92172 38 8.93913 38 10V42L32 38L28 42L24 38L20 42L16 38L10 42Z" stroke="#CE0000" stroke-width="3.5" stroke-linecap="round" stroke-linejoin="round"/>
<path id="Vector_2" d="M28 16H23C22.2044 16 21.4413 16.3161 20.8787 16.8787C20.3161 17.4413 20 18.2044 20 19C20 19.7956 20.3161 20.5587 20.8787 21.1213C21.4413 21.6839 22.2044 22 23 22H25C25.7956 22 26.5587 22.3161 27.1213 22.8787C27.6839 23.4413 28 24.2044 28 25C28 25.7956 27.6839 26.5587 27.1213 27.1213C26.5587 27.6839 25.7956 28 25 28H20M24 28V31M24 13V16" stroke="#CE0000" stroke-width="3.5" stroke-linecap="round" stroke-linejoin="round"/>
</g>
<defs>
<clipPath id="clip0_53_385">
<rect width="48" height="48" fill="white"/>
</clipPath>
</defs>
</svg>
