<svg width="221" height="31" viewBox="0 0 221 31" fill="none" xmlns="http://www.w3.org/2000/svg">
<path d="M59.85 14.4756H50.0239V16.8031H59.85V14.4756Z" fill="#0187FF"/>
<path d="M59.85 23.8131H50.0239V26.1406H59.85V23.8131Z" fill="#0187FF"/>
<path d="M0 30.8469H9.5365V28.5193H0V30.8469Z" fill="#0187FF"/>
<path d="M0 26.1917H9.89591L16.6959 30.874L16.7151 30.8469H26.2324V28.5193H17.4225L11.6101 24.5137L10.6426 23.8642H0V26.1917Z" fill="#0187FF"/>
<path d="M0 21.5094H9.5365V19.1818H0V21.5094Z" fill="#0187FF"/>
<path d="M0 16.8542H9.89591L16.6959 21.5365L16.7151 21.5094H26.2324V19.1818H17.4225L11.6101 15.1762L10.6426 14.5267H0V16.8542Z" fill="#0187FF"/>
<path d="M45.0018 15.1762L50.8143 19.1818H59.6241V21.5094H50.1068L50.0876 21.5365L43.2876 16.8542H33.3917V14.5267H44.0344L45.0018 15.1762Z" fill="#0187FF"/>
<path d="M50.8143 28.5193L45.0018 24.5137L44.0344 23.8642H33.3917V26.1917H43.2876L50.0876 30.874L50.1068 30.8469H59.6241V28.5193H50.8143Z" fill="#0187FF"/>
<path d="M28.3059 15.1762L34.1184 19.1818H42.9282V21.5094H33.4109L33.3917 21.5365L26.5918 16.8542H16.6959V14.5267H27.3385L28.3059 15.1762Z" fill="#0187FF"/>
<path d="M34.1184 28.5193L28.3059 24.5137L27.3385 23.8642H16.6959V26.1917H26.5918L33.3917 30.874L33.4109 30.8469H42.9282V28.5193H34.1184Z" fill="#0187FF"/>
<path d="M77.5161 14.0056V16.4252H72.9324V25.6689C72.9324 26.6476 73.1507 27.3273 73.6145 27.6536C74.0783 27.9798 74.624 28.1701 75.2242 28.1701C76.1246 28.1701 76.9158 27.9255 77.5979 27.4089H78.1163V29.9373C77.7343 30.1548 77.2159 30.3451 76.6157 30.5082C76.0155 30.6714 75.4698 30.7257 74.9514 30.7257C73.178 30.7257 71.8684 30.2636 71.0771 29.3664C70.2859 28.4692 69.8767 27.273 69.8767 25.7505V16.4252H67.5303V14.9843C68.1578 14.7668 68.7035 14.4677 69.14 14.1415C69.5765 13.7881 69.9585 13.4074 70.2313 12.9996C70.5315 12.5918 70.777 12.1296 70.968 11.6674C71.159 11.2053 71.2954 10.7431 71.4045 10.3081H72.9324V14.0327H77.5161V14.0056Z" fill="#0A193C"/>
<path d="M95.7142 25.832C95.3049 27.4633 94.4864 28.7411 93.2041 29.6383C91.9218 30.5354 90.3939 30.9704 88.5659 30.9704C87.42 30.9704 86.3559 30.7801 85.401 30.3723C84.4461 29.9645 83.6003 29.3936 82.8909 28.6595C82.1815 27.9255 81.6359 27.0283 81.2539 25.968C80.8719 24.9077 80.6537 23.7658 80.6537 22.488V22.0258C80.6537 20.748 80.8447 19.6061 81.2266 18.573C81.6086 17.5399 82.1543 16.6427 82.8364 15.9087C83.5184 15.1746 84.3369 14.5765 85.3192 14.1959C86.2741 13.7881 87.3381 13.5977 88.484 13.5977C89.7118 13.5977 90.8031 13.8152 91.7308 14.2502C92.6584 14.6852 93.4497 15.2834 94.0772 16.0446C94.7047 16.8058 95.1958 17.703 95.5232 18.709C95.8506 19.7149 96.0143 20.8296 96.0143 21.9714V22.5696C96.0143 22.7327 96.0143 22.923 95.987 23.1677H83.7094C83.8458 24.6902 84.3097 25.9408 85.1282 26.9195C85.9467 27.9255 87.0926 28.4148 88.6205 28.4148C89.6845 28.4148 90.5576 28.1973 91.2397 27.7623C91.9218 27.3273 92.4129 26.702 92.7403 25.8592H95.7142V25.832ZM92.904 20.6664C92.8494 20.0955 92.7403 19.5518 92.5493 18.9808C92.3583 18.4371 92.0855 17.9477 91.7308 17.5127C91.3761 17.0777 90.9396 16.7243 90.4212 16.4524C89.9028 16.1805 89.2753 16.0446 88.5386 16.0446C87.0926 16.0446 85.974 16.4796 85.2373 17.3224C84.4734 18.1652 83.9823 19.2799 83.764 20.6664H92.904Z" fill="#0A193C"/>
<path d="M99.3975 21.9714C99.3975 20.748 99.6157 19.6061 100.025 18.573C100.434 17.5399 101.007 16.6427 101.744 15.8815C102.481 15.1202 103.326 14.5493 104.336 14.1143C105.345 13.7065 106.437 13.489 107.61 13.489C108.565 13.489 109.492 13.6249 110.338 13.8696C111.184 14.1415 111.921 14.5221 112.575 15.0115C113.203 15.5009 113.749 16.1262 114.158 16.8602C114.567 17.5943 114.84 18.4371 114.949 19.4158V19.6877H112.221C112.057 18.4915 111.566 17.5671 110.775 16.969C109.983 16.3437 108.974 16.0446 107.692 16.0446C106.9 16.0446 106.191 16.2077 105.536 16.534C104.881 16.8602 104.336 17.2952 103.899 17.839C103.435 18.3827 103.108 19.0352 102.835 19.7964C102.59 20.5577 102.453 21.3733 102.453 22.2705C102.453 23.1405 102.562 23.9561 102.808 24.7174C103.053 25.4786 103.408 26.1311 103.845 26.6748C104.309 27.2186 104.827 27.6536 105.454 27.9526C106.082 28.2517 106.791 28.4148 107.583 28.4148C108.892 28.4148 109.956 28.1158 110.747 27.5176C111.539 26.9195 112.03 25.9952 112.221 24.7717H114.976V25.0436C114.867 25.9408 114.594 26.7564 114.212 27.4905C113.803 28.2245 113.285 28.8498 112.603 29.3664C111.948 29.8829 111.184 30.2907 110.338 30.5626C109.492 30.8345 108.565 30.9976 107.583 30.9976C106.382 30.9976 105.263 30.7801 104.281 30.3723C103.272 29.9645 102.426 29.3664 101.689 28.6051C100.953 27.8439 100.407 26.9467 99.9977 25.9136C99.6157 24.8805 99.3975 23.7386 99.3975 22.488V21.9714Z" fill="#0A193C"/>
<path d="M121.852 30.4267H118.851V7.42623H121.852V15.7455H121.906C122.507 15.0115 123.216 14.4405 124.035 14.0599C124.853 13.6793 125.699 13.489 126.599 13.489C128.591 13.489 130.146 14.0599 131.237 15.229C132.247 16.2893 132.765 17.8118 132.765 19.8508V30.3995H129.791V20.3946C129.791 19.5518 129.71 18.8993 129.573 18.3827C129.409 17.8661 129.191 17.4583 128.836 17.1049C128.182 16.4524 127.254 16.1262 126.026 16.1262C125.371 16.1262 124.771 16.2349 124.226 16.4252C123.68 16.6155 123.189 16.9418 122.779 17.404C122.152 18.0293 121.852 19.1711 121.852 20.7752V30.4267Z" fill="#0A193C"/>
<path d="M140.432 8.48653C140.432 8.92153 140.268 9.30215 139.941 9.57402C139.613 9.87308 139.231 10.009 138.795 10.009C138.358 10.009 137.976 9.87308 137.649 9.57402C137.322 9.27496 137.158 8.92153 137.158 8.48653V8.43216C137.158 7.94279 137.322 7.58935 137.649 7.31748C137.976 7.0456 138.358 6.90967 138.795 6.90967C139.231 6.90967 139.613 7.0456 139.941 7.31748C140.268 7.58935 140.432 7.94279 140.432 8.43216V8.48653ZM137.813 14.0056H139.777V30.4267H137.813V14.0056Z" fill="#0A193C"/>
<path d="M150.772 30.9161C148.89 30.9161 147.389 30.4539 146.298 29.5567C145.207 28.6595 144.606 27.3001 144.524 25.533V25.3427H146.598C146.653 26.5117 147.007 27.4361 147.608 28.1429C148.235 28.8498 149.272 29.2033 150.745 29.2033C152.164 29.2033 153.201 28.877 153.801 28.2245C154.428 27.572 154.729 26.838 154.729 25.968C154.729 25.2611 154.51 24.7174 154.101 24.2824C153.61 23.793 153.037 23.4667 152.328 23.2764C151.618 23.0861 150.882 22.8958 150.118 22.7327C149.354 22.5696 148.59 22.3792 147.853 22.1346C147.116 21.9171 146.462 21.5092 145.916 20.9655C145.534 20.5849 145.261 20.1771 145.043 19.7149C144.825 19.2527 144.743 18.709 144.743 18.1108V17.9205C144.743 17.2137 144.906 16.5883 145.207 16.0446C145.507 15.4737 145.916 15.0115 146.434 14.658C146.953 14.2774 147.553 14.0056 148.208 13.8152C148.89 13.6249 149.572 13.5162 150.309 13.5162C151.154 13.5162 151.918 13.5977 152.628 13.7881C153.337 13.9512 153.965 14.2502 154.483 14.6037C155.001 14.9843 155.438 15.4465 155.765 16.0174C156.093 16.5883 156.256 17.2408 156.311 18.0293V18.2196H154.347C154.319 17.6215 154.21 17.1321 153.992 16.7515C153.774 16.3708 153.501 16.0718 153.146 15.8271C152.819 15.6096 152.409 15.4465 151.973 15.3377C151.509 15.2562 151.045 15.2018 150.527 15.2018C149.817 15.2018 149.245 15.2834 148.753 15.4193C148.29 15.5824 147.908 15.7727 147.608 16.0446C147.335 16.3165 147.116 16.5883 147.007 16.9146C146.898 17.2408 146.816 17.5671 146.816 17.8933C146.816 18.3011 146.871 18.6546 147.007 18.8993C147.116 19.144 147.307 19.3886 147.553 19.6333C147.935 20.0411 148.481 20.313 149.163 20.4761C149.845 20.6393 150.581 20.8296 151.345 20.9927C152.137 21.1558 152.901 21.3733 153.664 21.618C154.428 21.8627 155.083 22.2705 155.629 22.8414C156.011 23.222 156.284 23.657 156.475 24.1736C156.666 24.6902 156.775 25.2339 156.775 25.8048C156.775 26.7564 156.584 27.572 156.202 28.2245C155.82 28.877 155.329 29.3936 154.756 29.7742C154.183 30.1548 153.528 30.4539 152.819 30.617C152.109 30.8345 151.427 30.9161 150.772 30.9161Z" fill="#0A193C"/>
<path d="M163.459 27.2458C163.459 27.8983 163.623 28.3604 163.95 28.6051C164.278 28.8498 164.769 28.9042 165.424 28.7954H165.724V30.5354C165.56 30.5898 165.369 30.617 165.096 30.617C164.823 30.617 164.578 30.6442 164.36 30.6442C163.377 30.6442 162.641 30.3723 162.177 29.8286C161.713 29.2848 161.468 28.5508 161.468 27.5992V7.42623H163.432V27.2458H163.459Z" fill="#0A193C"/>
<path d="M179.857 28.5779C179.311 29.2848 178.547 29.8557 177.619 30.2907C176.665 30.7257 175.737 30.9432 174.782 30.9432C173.936 30.9432 173.118 30.8073 172.354 30.5082C171.59 30.2092 170.935 29.8014 170.444 29.2848C169.516 28.3604 169.052 27.273 169.052 25.968V25.7777C169.052 24.9077 169.216 24.1192 169.571 23.4667C169.898 22.7871 170.389 22.2433 171.017 21.7811C171.644 21.3189 172.354 20.9655 173.199 20.748C174.045 20.5305 174.973 20.3946 175.955 20.3946C176.665 20.3946 177.347 20.4218 178.029 20.5033C178.711 20.5849 179.366 20.748 179.993 20.9927V19.9052C179.993 18.4915 179.693 17.404 179.093 16.5612C178.493 15.7455 177.428 15.3377 175.873 15.3377C175.355 15.3377 174.864 15.3921 174.4 15.4737C173.909 15.5824 173.5 15.7455 173.118 15.963C172.736 16.1805 172.436 16.5068 172.217 16.8874C171.999 17.268 171.863 17.7574 171.835 18.3283H169.816V18.138C169.925 17.2952 170.144 16.5612 170.498 15.963C170.853 15.3649 171.29 14.9027 171.835 14.5221C172.381 14.1687 172.981 13.8968 173.663 13.7337C174.345 13.5706 175.055 13.489 175.819 13.489C176.719 13.489 177.538 13.5977 178.302 13.7881C179.065 14.0056 179.72 14.359 180.266 14.8484C180.812 15.3377 181.248 15.9902 181.548 16.8058C181.848 17.6215 181.985 18.6274 181.985 19.8236V30.3995H180.566C180.457 30.1004 180.348 29.7742 180.266 29.4751C180.157 29.1761 180.075 28.8498 179.966 28.5508H179.857V28.5779ZM175.109 29.0673C175.682 29.0673 176.255 28.9586 176.828 28.7139C177.401 28.4964 177.92 28.1429 178.383 27.7351C178.847 27.3001 179.229 26.8108 179.529 26.2127C179.829 25.6145 179.966 24.962 179.966 24.2552V22.8142C178.574 22.3521 177.21 22.1346 175.846 22.1346C175.246 22.1346 174.673 22.1889 174.073 22.3249C173.5 22.4608 172.981 22.6511 172.545 22.9502C172.108 23.222 171.753 23.6027 171.481 24.0377C171.208 24.4999 171.071 25.0164 171.071 25.6689C171.071 26.838 171.453 27.6808 172.217 28.2517C173.009 28.7954 173.963 29.0673 175.109 29.0673Z" fill="#0A193C"/>
<path d="M187.496 30.4267V14.0056H188.915L189.488 15.8815H189.542C190.115 15.1474 190.852 14.5493 191.752 14.1415C192.653 13.7337 193.58 13.5162 194.563 13.5162C196.554 13.5162 198.082 14.0327 199.119 15.0659C199.692 15.6368 200.101 16.3437 200.374 17.1865C200.647 18.0293 200.756 19.008 200.756 20.1227V30.4267H198.764V20.0139C198.764 19.2255 198.682 18.5186 198.519 17.9205C198.355 17.2952 198.055 16.8058 197.646 16.3708C196.963 15.6912 195.899 15.3649 194.453 15.3649C193.662 15.3649 192.953 15.4737 192.325 15.7184C191.698 15.963 191.125 16.3437 190.606 16.8602C190.224 17.2408 189.924 17.7574 189.761 18.3283C189.597 18.9265 189.488 19.6877 189.488 20.6664V30.4267H187.496Z" fill="#0A193C"/>
<path d="M205.421 21.9171C205.421 20.6936 205.585 19.5518 205.94 18.5458C206.267 17.5127 206.786 16.6427 207.468 15.8815C208.15 15.1474 208.968 14.5493 209.978 14.1415C210.987 13.7337 212.16 13.5162 213.47 13.5162C214.616 13.5162 215.68 13.7609 216.662 14.2231C217.644 14.6852 218.408 15.3377 218.981 16.1533H219.036V7.45341H221V30.4539H219.582L218.927 28.3061H218.872C218.654 28.7139 218.327 29.0673 217.945 29.3664C217.535 29.6926 217.071 29.9645 216.58 30.2092C216.062 30.4539 215.544 30.6442 214.971 30.7529C214.398 30.8617 213.825 30.9432 213.224 30.9432C212.27 30.9432 211.342 30.7801 210.414 30.4539C209.487 30.1276 208.641 29.6111 207.904 28.9314C207.168 28.2517 206.567 27.3817 206.131 26.3214C205.667 25.2611 205.449 24.0105 205.449 22.5696V21.9171H205.421ZM213.415 15.3377C212.351 15.3377 211.451 15.5009 210.687 15.8543C209.923 16.2077 209.323 16.6971 208.832 17.3224C208.368 17.9477 208.013 18.6818 207.768 19.5246C207.55 20.3674 207.413 21.2917 207.413 22.2705C207.413 23.222 207.522 24.092 207.768 24.9077C208.013 25.7233 208.368 26.4573 208.859 27.0826C209.35 27.708 209.978 28.1973 210.714 28.5508C211.451 28.9042 212.351 29.0945 213.361 29.0945C214.343 29.0945 215.216 28.9042 215.926 28.5236C216.662 28.143 217.235 27.6536 217.699 27.0283C218.163 26.403 218.49 25.6689 218.708 24.8533C218.927 24.0377 219.036 23.1677 219.036 22.2705C219.036 21.3461 218.927 20.4761 218.736 19.6333C218.517 18.7905 218.19 18.0565 217.726 17.404C217.262 16.7515 216.689 16.2349 215.953 15.8543C215.325 15.5552 214.452 15.3377 213.415 15.3377Z" fill="#0A193C"/>
<path d="M16.4619 13.5876H42.332C42.3437 13.3631 42.3496 13.1372 42.3496 12.9098C42.3496 5.78155 36.5505 0.00292969 29.397 0.00292969C22.2434 0.00292969 16.4443 5.78155 16.4443 12.9098C16.4443 13.1372 16.4502 13.3631 16.4619 13.5876Z" fill="#FFC733"/>
</svg>
