<?xml version="1.0" encoding="UTF-8"?>
<svg xmlns="http://www.w3.org/2000/svg" xmlns:xlink="http://www.w3.org/1999/xlink" width="30" height="30" viewBox="0 0 30 30" version="1.1">
<defs>
<linearGradient id="linear0" gradientUnits="userSpaceOnUse" x1="0.5" y1="0" x2="0.5" y2="0.992583" gradientTransform="matrix(30,0,0,30,0,0)">
<stop offset="0" style="stop-color:rgb(16.470588%,67.058824%,93.333333%);stop-opacity:1;"/>
<stop offset="1" style="stop-color:rgb(13.333333%,61.960784%,85.098039%);stop-opacity:1;"/>
</linearGradient>
</defs>
<g id="surface1">
<path style=" stroke:none;fill-rule:evenodd;fill:url(#linear0);" d="M 30 15 C 30 23.285156 23.285156 30 15 30 C 6.714844 30 0 23.285156 0 15 C 0 6.714844 6.714844 0 15 0 C 23.285156 0 30 6.714844 30 15 Z M 30 15 "/>
<path style=" stroke:none;fill-rule:evenodd;fill:rgb(100%,100%,100%);fill-opacity:1;" d="M 6.789062 14.839844 C 11.164062 12.9375 14.078125 11.679688 15.539062 11.074219 C 19.703125 9.339844 20.570312 9.039062 21.132812 9.03125 C 21.257812 9.027344 21.535156 9.058594 21.714844 9.203125 C 21.867188 9.328125 21.90625 9.492188 21.925781 9.609375 C 21.949219 9.726562 21.972656 9.992188 21.953125 10.203125 C 21.726562 12.574219 20.75 18.328125 20.253906 20.984375 C 20.042969 22.109375 19.628906 22.488281 19.226562 22.523438 C 18.355469 22.601562 17.695312 21.949219 16.851562 21.394531 C 15.53125 20.527344 14.785156 19.992188 13.503906 19.144531 C 12.023438 18.171875 12.984375 17.632812 13.828125 16.757812 C 14.046875 16.527344 17.886719 13.035156 17.960938 12.71875 C 17.96875 12.679688 17.980469 12.53125 17.890625 12.453125 C 17.804688 12.375 17.671875 12.402344 17.582031 12.425781 C 17.449219 12.453125 15.339844 13.847656 11.253906 16.605469 C 10.65625 17.019531 10.113281 17.21875 9.625 17.207031 C 9.089844 17.195312 8.0625 16.90625 7.292969 16.65625 C 6.355469 16.351562 5.609375 16.1875 5.675781 15.671875 C 5.707031 15.398438 6.078125 15.125 6.789062 14.839844 Z M 6.789062 14.839844 "/>
</g>
</svg>
