<svg width="83" height="70" viewBox="0 0 83 70" fill="none" xmlns="http://www.w3.org/2000/svg">
<path opacity="0.3" d="M43.1143 30.4366L73.0761 47.8892C74.308 48.6018 74.308 50.3982 73.0761 51.1108L43.1143 68.5634C42.111 69.1455 40.8791 69.1455 39.8857 68.5634L9.92389 51.1108C8.69204 50.3982 8.69204 48.6018 9.92389 47.8892L39.8857 30.4366C40.889 29.8545 42.1209 29.8545 43.1143 30.4366Z" fill="#333333"/>
<path d="M43.5604 10.5512L81.823 32.4766C83.3923 33.3725 83.3923 35.6275 81.823 36.5234L43.5604 58.4488C42.2847 59.1837 40.7153 59.1837 39.4294 58.4488L1.17704 36.5234C-0.392345 35.6275 -0.392345 33.3725 1.17704 32.4766L39.4396 10.5512C40.7153 9.81628 42.2847 9.81628 43.5706 10.5512H43.5604Z" fill="#CE0000"/>
<path d="M81.3214 23.3438L81.4338 23.4082C82.2348 23.9608 82.2007 25.1585 81.3316 25.6561L81.3314 25.6562L43.5526 47.3055L43.5526 47.3055L43.5522 47.3057L43.5514 47.3062L43.5509 47.3065L43.5455 47.3095L43.5249 47.3212L43.4506 47.3634C43.4216 47.3798 43.3879 47.3989 43.3514 47.4195C43.3099 47.4429 43.2649 47.4683 43.2191 47.494C43.1327 47.5424 43.0448 47.5915 42.9734 47.6306C42.9053 47.6679 42.8691 47.6867 42.8595 47.6917C42.8576 47.6927 42.8567 47.6932 42.8569 47.6931L42.8569 47.693L42.8465 47.6979C41.9138 48.1383 40.8263 48.0947 39.9385 47.5862L1.67873 25.6463L1.67845 25.6461C0.773851 25.1282 0.773851 23.8519 1.67845 23.3339L1.67861 23.3338L39.9272 1.41462C39.9274 1.4145 39.9276 1.41438 39.9279 1.41426C40.8697 0.878793 42.0183 0.86219 42.9668 1.3623L42.9667 1.3624L42.9764 1.36723C42.9725 1.36527 43.7345 1.8019 45.0535 2.55765C46.0623 3.13566 47.3968 3.90033 48.9636 4.7982C52.5626 6.86069 57.3576 9.60881 62.1514 12.3563L75.3317 19.9107L79.6743 22.3997L80.8909 23.0971L81.2114 23.2808L81.2936 23.3279L81.3144 23.3398L81.3196 23.3428L81.3209 23.3436C81.3212 23.3437 81.3214 23.3438 81.57 22.91L81.3214 23.3438Z" fill="white" stroke="#333333"/>
<g clip-path="url(#clip0_7528_2721)">
<path d="M49.8804 27.6216L49.8804 25.2009L37.3452 25.2095L37.36 21.5869L33.1669 21.5869L33.1669 27.6216L49.8804 27.6216Z" fill="#333333"/>
<path d="M63.5819 23.803L42.9115 11.87C41.2726 10.9239 38.6297 10.9324 37.0056 11.87L19.2881 22.0983C17.664 23.0359 17.6493 24.5616 19.2881 25.5078L39.9586 37.4408C41.5827 38.3784 44.2403 38.3784 45.8644 37.4408L63.5819 27.2125C65.206 26.2749 65.2208 24.7492 63.5819 23.803ZM42.9115 35.7361L22.241 23.803L37.0056 15.2794L57.6761 27.2125L42.9115 35.7361Z" fill="#333333"/>
</g>
<defs>
<clipPath id="clip0_7528_2721">
<rect width="40.9159" height="40.9159" fill="white" transform="matrix(0.866044 0.499967 -0.866044 0.499967 41.435 4.19873)"/>
</clipPath>
</defs>
</svg>
