<svg width="36" height="25" viewBox="0 0 36 25" fill="none" xmlns="http://www.w3.org/2000/svg">
<g clip-path="url(#clip0_291_150)">
<path d="M15.6434 18.3165H12.719L14.5481 6.7002H17.4723L15.6434 18.3165Z" fill="#00579F"/>
<path d="M26.2467 6.98479C25.6699 6.74975 24.755 6.49023 23.6238 6.49023C20.7358 6.49023 18.7022 8.07195 18.6897 10.3333C18.6657 12.0018 20.1457 12.9285 21.2527 13.4848C22.3841 14.0532 22.7687 14.4243 22.7687 14.931C22.7572 15.7092 21.8544 16.0679 21.0125 16.0679C19.8449 16.0679 19.2194 15.883 18.2687 15.45L17.8836 15.2644L17.4744 17.872C18.1602 18.1929 19.4239 18.4778 20.7358 18.4902C23.8043 18.4902 25.802 16.933 25.8256 14.5231C25.8373 13.2008 25.0558 12.1875 23.3709 11.3595C22.3481 10.828 21.7217 10.4696 21.7217 9.92582C21.7337 9.43143 22.2515 8.92506 23.4061 8.92506C24.3568 8.90025 25.0553 9.13497 25.5845 9.36984L25.849 9.49319L26.2467 6.98479Z" fill="#00579F"/>
<path d="M30.1307 14.2003C30.3715 13.5329 31.2982 10.9501 31.2982 10.9501C31.2861 10.9749 31.5386 10.2705 31.683 9.83801L31.8874 10.8389C31.8874 10.8389 32.4412 13.6195 32.5614 14.2003C32.1044 14.2003 30.7083 14.2003 30.1307 14.2003ZM33.7405 6.69922H31.4785C30.7809 6.69922 30.2509 6.90913 29.95 7.66303L25.6062 18.3154H28.6747C28.6747 18.3154 29.1798 16.8816 29.2884 16.5729C29.625 16.5729 32.61 16.5729 33.0431 16.5729C33.127 16.9807 33.392 18.3154 33.392 18.3154H36.0997L33.7405 6.69922Z" fill="#00579F"/>
<path d="M10.2794 6.69922L7.41543 14.6204L7.10247 13.0139C6.57299 11.1602 4.91243 9.14619 3.05933 8.14477L5.68258 18.3032H8.77503L13.3716 6.69922H10.2794Z" fill="#00579F"/>
<path d="M4.75317 6.7002H0.0481344L0 6.93491C3.67022 7.89888 6.10094 10.2225 7.09961 13.0154L6.07679 7.67665C5.9084 6.93474 5.39091 6.72467 4.75317 6.7002Z" fill="#FAA61A"/>
</g>
<defs>
<clipPath id="clip0_291_150">
<rect width="36" height="25" fill="white"/>
</clipPath>
</defs>
</svg>
