<svg width="38" height="35" viewBox="0 0 38 35" fill="none" xmlns="http://www.w3.org/2000/svg">
<path d="M27.2503 0.5C24.0603 0.5 20.9987 1.985 19.0003 4.33167C17.002 1.985 13.9403 0.5 10.7503 0.5C5.10366 0.5 0.666992 4.93667 0.666992 10.5833C0.666992 17.5133 6.90033 23.16 16.342 31.74L19.0003 34.1417L21.6587 31.7217C31.1003 23.16 37.3337 17.5133 37.3337 10.5833C37.3337 4.93667 32.897 0.5 27.2503 0.5ZM19.1837 29.0083L19.0003 29.1917L18.817 29.0083C10.0903 21.1067 4.33366 15.8817 4.33366 10.5833C4.33366 6.91667 7.08366 4.16667 10.7503 4.16667C13.5737 4.16667 16.3237 5.98167 17.2953 8.49333H20.7237C21.677 5.98167 24.427 4.16667 27.2503 4.16667C30.917 4.16667 33.667 6.91667 33.667 10.5833C33.667 15.8817 27.9103 21.1067 19.1837 29.0083Z" fill="white"/>
</svg>
